G04 #@! TF.GenerationSoftware,KiCad,Pcbnew,10.0.6*
G04 #@! TF.CreationDate,2026-10-06T22:37:22+03:00*
G04 #@! TF.ProjectId,esp32_node .kicad_sch ,65737033-325f-46e6-9f64-65202e6b6963,rev?*
G04 #@! TF.SameCoordinates,Original*
G04 #@! TF.FileFunction,Copper,L2,Bot*
G04 #@! TF.FilePolarity,Positive*
%FSLAX46Y46*%
G04 Gerber Fmt 4.6, Leading zero omitted, Abs format (unit mm)*
G04 Created by KiCad (PCBNEW 10.0.6) date 2026-10-06 22:37:22*
%MOMM*%
%LPD*%
G01*
G04 APERTURE LIST*
G04 Aperture macros list*
%AMRoundRect*
0 Rectangle with rounded corners*
0 $1 Rounding radius*
0 $2 $3 $4 $5 $6 $7 $8 $9 X,Y pos of 4 corners*
0 Add a 4 corners polygon primitive as box body*
4,1,4,$2,$3,$4,$5,$6,$7,$8,$9,$2,$3,0*
0 Add four circle primitives for the rounded corners*
1,1,$1+$1,$2,$3*
1,1,$1+$1,$4,$5*
1,1,$1+$1,$6,$7*
1,1,$1+$1,$8,$9*
0 Add four rect primitives between the rounded corners*
20,1,$1+$1,$2,$3,$4,$5,0*
20,1,$1+$1,$4,$5,$6,$7,0*
20,1,$1+$1,$6,$7,$8,$9,0*
20,1,$1+$1,$8,$9,$2,$3,0*%
G04 Aperture macros list end*
G04 #@! TA.AperFunction,HeatsinkPad*
%ADD10C,0.500000*%
G04 #@! TD*
G04 #@! TA.AperFunction,HeatsinkPad*
%ADD11R,1.800000X2.500000*%
G04 #@! TD*
G04 #@! TA.AperFunction,ComponentPad*
%ADD12RoundRect,0.250000X-0.350000X-0.625000X0.350000X-0.625000X0.350000X0.625000X-0.350000X0.625000X0*%
G04 #@! TD*
G04 #@! TA.AperFunction,ComponentPad*
%ADD13O,1.200000X1.750000*%
G04 #@! TD*
G04 #@! TA.AperFunction,ComponentPad*
%ADD14O,1.000000X2.100000*%
G04 #@! TD*
G04 #@! TA.AperFunction,ComponentPad*
%ADD15O,1.000000X1.600000*%
G04 #@! TD*
G04 #@! TA.AperFunction,ComponentPad*
%ADD16R,1.700000X1.700000*%
G04 #@! TD*
G04 #@! TA.AperFunction,ComponentPad*
%ADD17C,1.700000*%
G04 #@! TD*
G04 #@! TA.AperFunction,HeatsinkPad*
%ADD18C,0.600000*%
G04 #@! TD*
G04 #@! TA.AperFunction,ComponentPad*
%ADD19RoundRect,0.250200X-0.649800X0.649800X-0.649800X-0.649800X0.649800X-0.649800X0.649800X0.649800X0*%
G04 #@! TD*
G04 #@! TA.AperFunction,ComponentPad*
%ADD20C,1.800000*%
G04 #@! TD*
G04 #@! TA.AperFunction,ComponentPad*
%ADD21R,1.800000X1.800000*%
G04 #@! TD*
G04 #@! TA.AperFunction,ViaPad*
%ADD22C,0.800000*%
G04 #@! TD*
G04 #@! TA.AperFunction,ViaPad*
%ADD23C,0.600000*%
G04 #@! TD*
G04 #@! TA.AperFunction,Conductor*
%ADD24C,0.250000*%
G04 #@! TD*
G04 #@! TA.AperFunction,Conductor*
%ADD25C,0.500000*%
G04 #@! TD*
G04 #@! TA.AperFunction,Conductor*
%ADD26C,0.450000*%
G04 #@! TD*
G04 APERTURE END LIST*
D10*
X132725001Y-70025000D03*
X132725001Y-71025000D03*
X132725001Y-72025000D03*
D11*
X133375001Y-71025000D03*
D10*
X134025001Y-70025000D03*
X134025001Y-71025000D03*
X134025001Y-72025000D03*
D12*
X149400001Y-80575000D03*
D13*
X151400001Y-80575000D03*
D14*
X132080001Y-84395000D03*
D15*
X132080001Y-88575000D03*
D14*
X140720001Y-84395000D03*
D15*
X140720001Y-88575000D03*
D16*
X162500000Y-45920000D03*
D17*
X162500000Y-48460000D03*
X162500000Y-51000000D03*
X162500000Y-53540000D03*
D18*
X142045000Y-50227500D03*
X142045000Y-51752500D03*
X142807500Y-49465000D03*
X142807500Y-50990000D03*
X142807500Y-52515000D03*
X143570000Y-50227500D03*
X143570000Y-51752500D03*
X144332500Y-49465000D03*
X144332500Y-50990000D03*
X144332500Y-52515000D03*
X145095000Y-50227500D03*
X145095000Y-51752500D03*
D19*
X172000000Y-67500000D03*
D20*
X172000000Y-70040000D03*
X172000000Y-72580000D03*
D21*
X171000000Y-62770000D03*
D20*
X171000000Y-60230000D03*
D22*
X158500000Y-69000000D03*
X167000000Y-74500000D03*
X116500000Y-57000000D03*
X147000000Y-81500000D03*
X164960000Y-56000000D03*
X145500000Y-79000000D03*
X165000000Y-69000000D03*
X164000000Y-64500000D03*
X124000000Y-45000000D03*
X125000000Y-43500000D03*
D23*
X140500000Y-81500000D03*
X117500000Y-69050000D03*
X164000000Y-80500000D03*
X130575000Y-46575000D03*
X141850001Y-78000000D03*
X167950000Y-69550000D03*
X157000000Y-50000000D03*
X122000000Y-64500000D03*
X122000000Y-66500000D03*
X157000000Y-47000000D03*
D22*
X132500000Y-75000000D03*
X166000000Y-84000000D03*
X138000000Y-70000000D03*
X171500000Y-81500000D03*
X170500000Y-46500000D03*
D23*
X157000000Y-60000000D03*
X130500000Y-58000000D03*
X156400001Y-83525000D03*
X157900001Y-75525000D03*
D24*
X124000000Y-45000000D02*
X122500000Y-46500000D01*
D25*
X164960000Y-63540000D02*
X164000000Y-64500000D01*
X164960000Y-56000000D02*
X164960000Y-63540000D01*
D26*
X145500000Y-79000000D02*
X145500000Y-81500000D01*
D24*
X165000000Y-72500000D02*
X165000000Y-69000000D01*
D26*
X145500000Y-81500000D02*
X145500000Y-85000000D01*
D24*
X164000000Y-64500000D02*
X161000000Y-64500000D01*
D26*
X112000000Y-76500000D02*
X116000000Y-76500000D01*
X116000000Y-76500000D02*
X126500000Y-87000000D01*
X125000000Y-43500000D02*
X124500000Y-43500000D01*
D24*
X122500000Y-46500000D02*
X122500000Y-55500000D01*
X167000000Y-74500000D02*
X165000000Y-72500000D01*
D26*
X110000000Y-61500000D02*
X110000000Y-74500000D01*
D24*
X122500000Y-55500000D02*
X121500000Y-56500000D01*
D26*
X124500000Y-43500000D02*
X121500000Y-46500000D01*
X110000000Y-74500000D02*
X112000000Y-76500000D01*
X121000000Y-55500000D02*
X116000000Y-55500000D01*
D24*
X161000000Y-64500000D02*
X158500000Y-67000000D01*
D26*
X145500000Y-85000000D02*
X143500000Y-87000000D01*
X121500000Y-55000000D02*
X121000000Y-55500000D01*
D24*
X158500000Y-67000000D02*
X158500000Y-69000000D01*
X121500000Y-56500000D02*
X117000000Y-56500000D01*
X117000000Y-56500000D02*
X116500000Y-57000000D01*
D26*
X143500000Y-87000000D02*
X126500000Y-87000000D01*
X121500000Y-46500000D02*
X121500000Y-55000000D01*
X116000000Y-55500000D02*
X110000000Y-61500000D01*
D25*
X164960000Y-56000000D02*
X165000000Y-56000000D01*
D24*
X147000000Y-81500000D02*
X145500000Y-81500000D01*
X155000000Y-64500000D02*
X122000000Y-64500000D01*
X157000000Y-50000000D02*
X158500000Y-51500000D01*
X158500000Y-51500000D02*
X158500000Y-61000000D01*
X158500000Y-61000000D02*
X155000000Y-64500000D01*
X159000000Y-63000000D02*
X159000000Y-49000000D01*
X122000000Y-66500000D02*
X155500000Y-66500000D01*
X159000000Y-49000000D02*
X157000000Y-47000000D01*
X155500000Y-66500000D02*
X159000000Y-63000000D01*
D26*
X138000000Y-70000000D02*
X138000000Y-74000000D01*
D24*
X140000000Y-76000000D02*
X138000000Y-74000000D01*
X146275000Y-78678984D02*
X143596016Y-76000000D01*
X146275000Y-79315809D02*
X146275000Y-78678984D01*
D25*
X174500000Y-59500000D02*
X174500000Y-78500000D01*
D24*
X151959191Y-85000000D02*
X146275000Y-79315809D01*
D25*
X170500000Y-55500000D02*
X174500000Y-59500000D01*
D26*
X138000000Y-74000000D02*
X136500000Y-75500000D01*
D24*
X143596016Y-76000000D02*
X140000000Y-76000000D01*
D25*
X174500000Y-78500000D02*
X171500000Y-81500000D01*
D26*
X133000000Y-75500000D02*
X132500000Y-75000000D01*
D25*
X170500000Y-46500000D02*
X170500000Y-55500000D01*
D26*
X136500000Y-75500000D02*
X133000000Y-75500000D01*
D24*
X166000000Y-84000000D02*
X165000000Y-85000000D01*
X165000000Y-85000000D02*
X151959191Y-85000000D01*
X133500000Y-63000000D02*
X155500000Y-63000000D01*
X157500000Y-61000000D02*
X157500000Y-60500000D01*
X130500000Y-58000000D02*
X132500000Y-60000000D01*
X132500000Y-62000000D02*
X133500000Y-63000000D01*
X155500000Y-63000000D02*
X157500000Y-61000000D01*
X132500000Y-60000000D02*
X132500000Y-62000000D01*
X157500000Y-60500000D02*
X157000000Y-60000000D01*
X157400001Y-83525000D02*
X158400001Y-82525000D01*
X156400001Y-83525000D02*
X157400001Y-83525000D01*
X158400001Y-82525000D02*
X158400001Y-76025000D01*
X158400001Y-76025000D02*
X157900001Y-75525000D01*
G04 #@! TA.AperFunction,Conductor*
G36*
X124533265Y-42520185D02*
G01*
X124579020Y-42572989D01*
X124588964Y-42642147D01*
X124559939Y-42705703D01*
X124535119Y-42727600D01*
X124496205Y-42753602D01*
X124434508Y-42772920D01*
X124434605Y-42773903D01*
X124429888Y-42774367D01*
X124429529Y-42774480D01*
X124428666Y-42774487D01*
X124428542Y-42774499D01*
X124288385Y-42802379D01*
X124288379Y-42802381D01*
X124156344Y-42857071D01*
X124037522Y-42936465D01*
X124037515Y-42936471D01*
X120936469Y-46037518D01*
X120936468Y-46037520D01*
X120925819Y-46053458D01*
X120925817Y-46053461D01*
X120925816Y-46053460D01*
X120857074Y-46156340D01*
X120857069Y-46156349D01*
X120802381Y-46288379D01*
X120802379Y-46288385D01*
X120774500Y-46428542D01*
X120774500Y-54648126D01*
X120754815Y-54715165D01*
X120738181Y-54735807D01*
X120735807Y-54738181D01*
X120674484Y-54771666D01*
X120648126Y-54774500D01*
X115928543Y-54774500D01*
X115788385Y-54802379D01*
X115788379Y-54802381D01*
X115656348Y-54857070D01*
X115537517Y-54936469D01*
X109436470Y-61037516D01*
X109436466Y-61037521D01*
X109402265Y-61088708D01*
X109393743Y-61101463D01*
X109379053Y-61123446D01*
X109357070Y-61156347D01*
X109302381Y-61288379D01*
X109302379Y-61288385D01*
X109274500Y-61428542D01*
X109274500Y-74571457D01*
X109293742Y-74668189D01*
X109293742Y-74668190D01*
X109302379Y-74711613D01*
X109302381Y-74711620D01*
X109357070Y-74843651D01*
X109436469Y-74962482D01*
X111537517Y-77063530D01*
X111537520Y-77063532D01*
X111656347Y-77142929D01*
X111788380Y-77197619D01*
X111788384Y-77197619D01*
X111788385Y-77197620D01*
X111928542Y-77225500D01*
X111928545Y-77225500D01*
X115648126Y-77225500D01*
X115715165Y-77245185D01*
X115735807Y-77261819D01*
X126037516Y-87563529D01*
X126037517Y-87563530D01*
X126037520Y-87563532D01*
X126156347Y-87642929D01*
X126288380Y-87697619D01*
X126288384Y-87697619D01*
X126288385Y-87697620D01*
X126428542Y-87725500D01*
X131039640Y-87725500D01*
X131106679Y-87745185D01*
X131152434Y-87797989D01*
X131162378Y-87867147D01*
X131154201Y-87896953D01*
X131118430Y-87983310D01*
X131118428Y-87983318D01*
X131080001Y-88176504D01*
X131080001Y-88325000D01*
X131780001Y-88325000D01*
X131780001Y-88825000D01*
X131080001Y-88825000D01*
X131080001Y-88973495D01*
X131118428Y-89166681D01*
X131118431Y-89166693D01*
X131193808Y-89348671D01*
X131193815Y-89348684D01*
X131303249Y-89512462D01*
X131303252Y-89512466D01*
X131442534Y-89651748D01*
X131442538Y-89651751D01*
X131606316Y-89761185D01*
X131606329Y-89761192D01*
X131788309Y-89836569D01*
X131830001Y-89844862D01*
X131830001Y-89041988D01*
X131839941Y-89059205D01*
X131895796Y-89115060D01*
X131964205Y-89154556D01*
X132040505Y-89175000D01*
X132119497Y-89175000D01*
X132195797Y-89154556D01*
X132264206Y-89115060D01*
X132320061Y-89059205D01*
X132330001Y-89041988D01*
X132330001Y-89844862D01*
X132371691Y-89836569D01*
X132371693Y-89836569D01*
X132553672Y-89761192D01*
X132553685Y-89761185D01*
X132717463Y-89651751D01*
X132717467Y-89651748D01*
X132856749Y-89512466D01*
X132856752Y-89512462D01*
X132966186Y-89348684D01*
X132966193Y-89348671D01*
X133041570Y-89166693D01*
X133041573Y-89166681D01*
X133080000Y-88973495D01*
X133080001Y-88973492D01*
X133080001Y-88825000D01*
X132380001Y-88825000D01*
X132380001Y-88325000D01*
X133080001Y-88325000D01*
X133080001Y-88176508D01*
X133080000Y-88176504D01*
X133041573Y-87983318D01*
X133041571Y-87983310D01*
X133005801Y-87896953D01*
X132998332Y-87827484D01*
X133029607Y-87765004D01*
X133089696Y-87729352D01*
X133120362Y-87725500D01*
X139679640Y-87725500D01*
X139746679Y-87745185D01*
X139792434Y-87797989D01*
X139802378Y-87867147D01*
X139794201Y-87896953D01*
X139758430Y-87983310D01*
X139758428Y-87983318D01*
X139720001Y-88176504D01*
X139720001Y-88325000D01*
X140420001Y-88325000D01*
X140420001Y-88825000D01*
X139720001Y-88825000D01*
X139720001Y-88973495D01*
X139758428Y-89166681D01*
X139758431Y-89166693D01*
X139833808Y-89348671D01*
X139833815Y-89348684D01*
X139943249Y-89512462D01*
X139943252Y-89512466D01*
X140082534Y-89651748D01*
X140082538Y-89651751D01*
X140246316Y-89761185D01*
X140246329Y-89761192D01*
X140428309Y-89836569D01*
X140470001Y-89844862D01*
X140470001Y-89041988D01*
X140479941Y-89059205D01*
X140535796Y-89115060D01*
X140604205Y-89154556D01*
X140680505Y-89175000D01*
X140759497Y-89175000D01*
X140835797Y-89154556D01*
X140904206Y-89115060D01*
X140960061Y-89059205D01*
X140970001Y-89041988D01*
X140970001Y-89844862D01*
X141011691Y-89836569D01*
X141011693Y-89836569D01*
X141193672Y-89761192D01*
X141193685Y-89761185D01*
X141357463Y-89651751D01*
X141357467Y-89651748D01*
X141496749Y-89512466D01*
X141496752Y-89512462D01*
X141606186Y-89348684D01*
X141606193Y-89348671D01*
X141681570Y-89166693D01*
X141681573Y-89166681D01*
X141720000Y-88973495D01*
X141720001Y-88973492D01*
X141720001Y-88825000D01*
X141020001Y-88825000D01*
X141020001Y-88325000D01*
X141720001Y-88325000D01*
X141720001Y-88176508D01*
X141720000Y-88176504D01*
X141681573Y-87983318D01*
X141681571Y-87983310D01*
X141645801Y-87896953D01*
X141638332Y-87827484D01*
X141669607Y-87765004D01*
X141729696Y-87729352D01*
X141760362Y-87725500D01*
X143571457Y-87725500D01*
X143665751Y-87706742D01*
X143711620Y-87697619D01*
X143843653Y-87642929D01*
X143962480Y-87563532D01*
X146063532Y-85462480D01*
X146142929Y-85343653D01*
X146197619Y-85211620D01*
X146203421Y-85182451D01*
X146225500Y-85071455D01*
X146225500Y-82297122D01*
X146245185Y-82230083D01*
X146297989Y-82184328D01*
X146367147Y-82174384D01*
X146419870Y-82197620D01*
X146420900Y-82196080D01*
X146573446Y-82298009D01*
X146573459Y-82298016D01*
X146696363Y-82348923D01*
X146737334Y-82365894D01*
X146737336Y-82365894D01*
X146737341Y-82365896D01*
X146911304Y-82400499D01*
X146911307Y-82400500D01*
X146911309Y-82400500D01*
X147088693Y-82400500D01*
X147088694Y-82400499D01*
X147146682Y-82388964D01*
X147262658Y-82365896D01*
X147262661Y-82365894D01*
X147262666Y-82365894D01*
X147426547Y-82298013D01*
X147574035Y-82199464D01*
X147699464Y-82074035D01*
X147795435Y-81930405D01*
X147849046Y-81885601D01*
X147918371Y-81876894D01*
X147981398Y-81907048D01*
X147986217Y-81911616D01*
X151470207Y-85395606D01*
X151470236Y-85395637D01*
X151560455Y-85485856D01*
X151560458Y-85485858D01*
X151611681Y-85520084D01*
X151662905Y-85554312D01*
X151743398Y-85587652D01*
X151776739Y-85601463D01*
X151837162Y-85613481D01*
X151897584Y-85625500D01*
X165061607Y-85625500D01*
X165122029Y-85613481D01*
X165182452Y-85601463D01*
X165182455Y-85601461D01*
X165182458Y-85601461D01*
X165215787Y-85587654D01*
X165215786Y-85587654D01*
X165215792Y-85587652D01*
X165296286Y-85554312D01*
X165347509Y-85520084D01*
X165347511Y-85520083D01*
X165376819Y-85500500D01*
X165398733Y-85485858D01*
X165485858Y-85398733D01*
X165485859Y-85398730D01*
X165947773Y-84936816D01*
X166009095Y-84903334D01*
X166035453Y-84900500D01*
X166088693Y-84900500D01*
X166088694Y-84900499D01*
X166146682Y-84888964D01*
X166262658Y-84865896D01*
X166262661Y-84865894D01*
X166262666Y-84865894D01*
X166426547Y-84798013D01*
X166574035Y-84699464D01*
X166699464Y-84574035D01*
X166798013Y-84426547D01*
X166865894Y-84262666D01*
X166871825Y-84232853D01*
X166900499Y-84088695D01*
X166900500Y-84088693D01*
X166900500Y-83911306D01*
X166900499Y-83911304D01*
X166865896Y-83737341D01*
X166865893Y-83737332D01*
X166798016Y-83573459D01*
X166798014Y-83573455D01*
X166798013Y-83573453D01*
X166699464Y-83425965D01*
X166699462Y-83425962D01*
X166652211Y-83378711D01*
X174649500Y-83378711D01*
X174649500Y-83621288D01*
X174676726Y-83828098D01*
X174681162Y-83861789D01*
X174697759Y-83923730D01*
X174743947Y-84096104D01*
X174812940Y-84262667D01*
X174836776Y-84320212D01*
X174958064Y-84530289D01*
X174958066Y-84530292D01*
X174958067Y-84530293D01*
X175105733Y-84722736D01*
X175105739Y-84722743D01*
X175277256Y-84894260D01*
X175277263Y-84894266D01*
X175289081Y-84903334D01*
X175469711Y-85041936D01*
X175679788Y-85163224D01*
X175903900Y-85256054D01*
X176138211Y-85318838D01*
X176318586Y-85342584D01*
X176378711Y-85350500D01*
X176378712Y-85350500D01*
X176621289Y-85350500D01*
X176673312Y-85343651D01*
X176861789Y-85318838D01*
X177096100Y-85256054D01*
X177320212Y-85163224D01*
X177530289Y-85041936D01*
X177722738Y-84894265D01*
X177894265Y-84722738D01*
X178041936Y-84530289D01*
X178163224Y-84320212D01*
X178256054Y-84096100D01*
X178318838Y-83861789D01*
X178350500Y-83621288D01*
X178350500Y-83378712D01*
X178318838Y-83138211D01*
X178256054Y-82903900D01*
X178255769Y-82903213D01*
X178219483Y-82815609D01*
X178163224Y-82679788D01*
X178041936Y-82469711D01*
X177894265Y-82277262D01*
X177894260Y-82277256D01*
X177722743Y-82105739D01*
X177722736Y-82105733D01*
X177530293Y-81958067D01*
X177530292Y-81958066D01*
X177530289Y-81958064D01*
X177320212Y-81836776D01*
X177320205Y-81836773D01*
X177096104Y-81743947D01*
X176978944Y-81712554D01*
X176861789Y-81681162D01*
X176861788Y-81681161D01*
X176861785Y-81681161D01*
X176621289Y-81649500D01*
X176621288Y-81649500D01*
X176378712Y-81649500D01*
X176378711Y-81649500D01*
X176138214Y-81681161D01*
X175903895Y-81743947D01*
X175679794Y-81836773D01*
X175679785Y-81836777D01*
X175469706Y-81958067D01*
X175277263Y-82105733D01*
X175277256Y-82105739D01*
X175105739Y-82277256D01*
X175105733Y-82277263D01*
X174958067Y-82469706D01*
X174836777Y-82679785D01*
X174836773Y-82679794D01*
X174743947Y-82903895D01*
X174681161Y-83138214D01*
X174649500Y-83378711D01*
X166652211Y-83378711D01*
X166574038Y-83300538D01*
X166574034Y-83300535D01*
X166426553Y-83201990D01*
X166426540Y-83201983D01*
X166262667Y-83134106D01*
X166262658Y-83134103D01*
X166088694Y-83099500D01*
X166088691Y-83099500D01*
X165911309Y-83099500D01*
X165911306Y-83099500D01*
X165737341Y-83134103D01*
X165737332Y-83134106D01*
X165573459Y-83201983D01*
X165573446Y-83201990D01*
X165425965Y-83300535D01*
X165425961Y-83300538D01*
X165300538Y-83425961D01*
X165300535Y-83425965D01*
X165201990Y-83573446D01*
X165201983Y-83573459D01*
X165134106Y-83737332D01*
X165134103Y-83737341D01*
X165099500Y-83911304D01*
X165099500Y-83964547D01*
X165079815Y-84031586D01*
X165063181Y-84052228D01*
X164777229Y-84338181D01*
X164715906Y-84371666D01*
X164689548Y-84374500D01*
X157594479Y-84374500D01*
X157527440Y-84354815D01*
X157481685Y-84302011D01*
X157471741Y-84232853D01*
X157500766Y-84169297D01*
X157559544Y-84131523D01*
X157570288Y-84128883D01*
X157575206Y-84127904D01*
X157582453Y-84126463D01*
X157615793Y-84112652D01*
X157696287Y-84079312D01*
X157762170Y-84035289D01*
X157798734Y-84010858D01*
X157885859Y-83923733D01*
X157885859Y-83923731D01*
X157896067Y-83913524D01*
X157896068Y-83913521D01*
X158885859Y-82923733D01*
X158954313Y-82821285D01*
X159001464Y-82707451D01*
X159025502Y-82586606D01*
X159025502Y-82463393D01*
X159025502Y-82458283D01*
X159025501Y-82458257D01*
X159025501Y-75963393D01*
X159025500Y-75963389D01*
X159009712Y-75884017D01*
X159001464Y-75842548D01*
X158973278Y-75774501D01*
X158958234Y-75738181D01*
X158954316Y-75728721D01*
X158954308Y-75728707D01*
X158934769Y-75699465D01*
X158934768Y-75699464D01*
X158885859Y-75626267D01*
X158885856Y-75626263D01*
X158795638Y-75536045D01*
X158795607Y-75536016D01*
X158725794Y-75466203D01*
X158692309Y-75404880D01*
X158691888Y-75402864D01*
X158669738Y-75291503D01*
X158645600Y-75233230D01*
X158609398Y-75145827D01*
X158609391Y-75145814D01*
X158521790Y-75014711D01*
X158521787Y-75014707D01*
X158410293Y-74903213D01*
X158410289Y-74903210D01*
X158279186Y-74815609D01*
X158279173Y-74815602D01*
X158133502Y-74755264D01*
X158133490Y-74755261D01*
X157978846Y-74724500D01*
X157978843Y-74724500D01*
X157821159Y-74724500D01*
X157821156Y-74724500D01*
X157666511Y-74755261D01*
X157666499Y-74755264D01*
X157520828Y-74815602D01*
X157520815Y-74815609D01*
X157389712Y-74903210D01*
X157389708Y-74903213D01*
X157278214Y-75014707D01*
X157278211Y-75014711D01*
X157190610Y-75145814D01*
X157190603Y-75145827D01*
X157130265Y-75291498D01*
X157130262Y-75291510D01*
X157099501Y-75446153D01*
X157099501Y-75603846D01*
X157130262Y-75758489D01*
X157130265Y-75758501D01*
X157190603Y-75904172D01*
X157190610Y-75904185D01*
X157278211Y-76035288D01*
X157278214Y-76035292D01*
X157389708Y-76146786D01*
X157389712Y-76146789D01*
X157520815Y-76234390D01*
X157520828Y-76234397D01*
X157630083Y-76279651D01*
X157666504Y-76294737D01*
X157674692Y-76296365D01*
X157736602Y-76328750D01*
X157771177Y-76389465D01*
X157774501Y-76417983D01*
X157774501Y-82214547D01*
X157754816Y-82281586D01*
X157738182Y-82302228D01*
X157177230Y-82863181D01*
X157115907Y-82896666D01*
X157089549Y-82899500D01*
X156942351Y-82899500D01*
X156875312Y-82879815D01*
X156873460Y-82878602D01*
X156779185Y-82815609D01*
X156779173Y-82815602D01*
X156633502Y-82755264D01*
X156633490Y-82755261D01*
X156478846Y-82724500D01*
X156478843Y-82724500D01*
X156321159Y-82724500D01*
X156321156Y-82724500D01*
X156166511Y-82755261D01*
X156166499Y-82755264D01*
X156020828Y-82815602D01*
X156020815Y-82815609D01*
X155889712Y-82903210D01*
X155889708Y-82903213D01*
X155778214Y-83014707D01*
X155778211Y-83014711D01*
X155690610Y-83145814D01*
X155690603Y-83145827D01*
X155630265Y-83291498D01*
X155630262Y-83291510D01*
X155599501Y-83446153D01*
X155599501Y-83603846D01*
X155630262Y-83758489D01*
X155630265Y-83758501D01*
X155690603Y-83904172D01*
X155690610Y-83904185D01*
X155778211Y-84035288D01*
X155778214Y-84035292D01*
X155889709Y-84146787D01*
X155890622Y-84147397D01*
X155890992Y-84147839D01*
X155894420Y-84150653D01*
X155893886Y-84151303D01*
X155935428Y-84201010D01*
X155944135Y-84270334D01*
X155913981Y-84333362D01*
X155854538Y-84370082D01*
X155821732Y-84374500D01*
X152269643Y-84374500D01*
X152202604Y-84354815D01*
X152181962Y-84338181D01*
X149955554Y-82111773D01*
X149922069Y-82050450D01*
X149927053Y-81980758D01*
X149968925Y-81924825D01*
X150004226Y-81906388D01*
X150069335Y-81884814D01*
X150218657Y-81792712D01*
X150342713Y-81668656D01*
X150382311Y-81604456D01*
X150434259Y-81557732D01*
X150503221Y-81546509D01*
X150567304Y-81574352D01*
X150575531Y-81581872D01*
X150683073Y-81689414D01*
X150823213Y-81791232D01*
X150977556Y-81869873D01*
X151142300Y-81923402D01*
X151313390Y-81950500D01*
X151313391Y-81950500D01*
X151486611Y-81950500D01*
X151486612Y-81950500D01*
X151657702Y-81923402D01*
X151822446Y-81869873D01*
X151976789Y-81791232D01*
X152116929Y-81689414D01*
X152239415Y-81566928D01*
X152341233Y-81426788D01*
X152419874Y-81272445D01*
X152473403Y-81107701D01*
X152500501Y-80936611D01*
X152500501Y-80213389D01*
X152473403Y-80042299D01*
X152419874Y-79877555D01*
X152341233Y-79723212D01*
X152239415Y-79583072D01*
X152116929Y-79460586D01*
X151976789Y-79358768D01*
X151822446Y-79280127D01*
X151657702Y-79226598D01*
X151657700Y-79226597D01*
X151657699Y-79226597D01*
X151526272Y-79205781D01*
X151486612Y-79199500D01*
X151313390Y-79199500D01*
X151273729Y-79205781D01*
X151142303Y-79226597D01*
X150977553Y-79280128D01*
X150823212Y-79358768D01*
X150683074Y-79460585D01*
X150575531Y-79568128D01*
X150514208Y-79601612D01*
X150444516Y-79596628D01*
X150388583Y-79554756D01*
X150382311Y-79545543D01*
X150375851Y-79535069D01*
X150342713Y-79481344D01*
X150218657Y-79357288D01*
X150093560Y-79280128D01*
X150069337Y-79265187D01*
X150069332Y-79265185D01*
X150061706Y-79262658D01*
X149902798Y-79210001D01*
X149902796Y-79210000D01*
X149800011Y-79199500D01*
X148999999Y-79199500D01*
X148999981Y-79199501D01*
X148897204Y-79210000D01*
X148897201Y-79210001D01*
X148730669Y-79265185D01*
X148730664Y-79265187D01*
X148581343Y-79357289D01*
X148457290Y-79481342D01*
X148365188Y-79630663D01*
X148365187Y-79630666D01*
X148310002Y-79797203D01*
X148310002Y-79797204D01*
X148310001Y-79797204D01*
X148299501Y-79899983D01*
X148299501Y-80156358D01*
X148279816Y-80223397D01*
X148227012Y-80269152D01*
X148157854Y-80279096D01*
X148094298Y-80250071D01*
X148087820Y-80244039D01*
X146936819Y-79093038D01*
X146903334Y-79031715D01*
X146900500Y-79005357D01*
X146900500Y-78746725D01*
X146900501Y-78746704D01*
X146900501Y-78617375D01*
X146876464Y-78496539D01*
X146876463Y-78496533D01*
X146829312Y-78382699D01*
X146760858Y-78280251D01*
X146760855Y-78280247D01*
X144088944Y-75608338D01*
X144088941Y-75608334D01*
X144088941Y-75608335D01*
X144081874Y-75601268D01*
X144081874Y-75601267D01*
X143994749Y-75514142D01*
X143929717Y-75470689D01*
X143923004Y-75466203D01*
X143892301Y-75445687D01*
X143846105Y-75426553D01*
X143811808Y-75412347D01*
X143778469Y-75398537D01*
X143768443Y-75396543D01*
X143718045Y-75386518D01*
X143657626Y-75374500D01*
X143657623Y-75374500D01*
X143657622Y-75374500D01*
X140310452Y-75374500D01*
X140243413Y-75354815D01*
X140222771Y-75338181D01*
X138761819Y-73877229D01*
X138728334Y-73815906D01*
X138725500Y-73789548D01*
X138725500Y-70572684D01*
X138745185Y-70505645D01*
X138746398Y-70503793D01*
X138798013Y-70426547D01*
X138865894Y-70262666D01*
X138869654Y-70243767D01*
X138898401Y-70099244D01*
X138900500Y-70088691D01*
X138900500Y-69911309D01*
X138900500Y-69911306D01*
X138900499Y-69911304D01*
X138865896Y-69737341D01*
X138865893Y-69737332D01*
X138798016Y-69573459D01*
X138798009Y-69573446D01*
X138699464Y-69425965D01*
X138699461Y-69425961D01*
X138574038Y-69300538D01*
X138574034Y-69300535D01*
X138426553Y-69201990D01*
X138426540Y-69201983D01*
X138262667Y-69134106D01*
X138262658Y-69134103D01*
X138088694Y-69099500D01*
X138088691Y-69099500D01*
X137911309Y-69099500D01*
X137911306Y-69099500D01*
X137737341Y-69134103D01*
X137737332Y-69134106D01*
X137573459Y-69201983D01*
X137573446Y-69201990D01*
X137425965Y-69300535D01*
X137425961Y-69300538D01*
X137300538Y-69425961D01*
X137300535Y-69425965D01*
X137201990Y-69573446D01*
X137201983Y-69573459D01*
X137134106Y-69737332D01*
X137134103Y-69737341D01*
X137099500Y-69911304D01*
X137099500Y-70088695D01*
X137134103Y-70262658D01*
X137134106Y-70262667D01*
X137201984Y-70426542D01*
X137201985Y-70426543D01*
X137201987Y-70426547D01*
X137253602Y-70503793D01*
X137274480Y-70570470D01*
X137274500Y-70572684D01*
X137274500Y-73648126D01*
X137254815Y-73715165D01*
X137238181Y-73735807D01*
X136235807Y-74738181D01*
X136174484Y-74771666D01*
X136148126Y-74774500D01*
X133464143Y-74774500D01*
X133397104Y-74754815D01*
X133351349Y-74702011D01*
X133349582Y-74697952D01*
X133298016Y-74573459D01*
X133298009Y-74573446D01*
X133199464Y-74425965D01*
X133199461Y-74425961D01*
X133074038Y-74300538D01*
X133074034Y-74300535D01*
X132926553Y-74201990D01*
X132926540Y-74201983D01*
X132762667Y-74134106D01*
X132762658Y-74134103D01*
X132588694Y-74099500D01*
X132588691Y-74099500D01*
X132411309Y-74099500D01*
X132411306Y-74099500D01*
X132237341Y-74134103D01*
X132237332Y-74134106D01*
X132073459Y-74201983D01*
X132073446Y-74201990D01*
X131925965Y-74300535D01*
X131925961Y-74300538D01*
X131800538Y-74425961D01*
X131800535Y-74425965D01*
X131701990Y-74573446D01*
X131701983Y-74573459D01*
X131634106Y-74737332D01*
X131634103Y-74737341D01*
X131599500Y-74911304D01*
X131599500Y-75088695D01*
X131634103Y-75262658D01*
X131634106Y-75262667D01*
X131701983Y-75426540D01*
X131701990Y-75426553D01*
X131800535Y-75574034D01*
X131800538Y-75574038D01*
X131925961Y-75699461D01*
X131925965Y-75699464D01*
X132073446Y-75798009D01*
X132073459Y-75798016D01*
X132180964Y-75842545D01*
X132237334Y-75865894D01*
X132328456Y-75884019D01*
X132390363Y-75916402D01*
X132391943Y-75917954D01*
X132436468Y-75962479D01*
X132509277Y-76035288D01*
X132537522Y-76063533D01*
X132656340Y-76142925D01*
X132656349Y-76142930D01*
X132665666Y-76146789D01*
X132788380Y-76197619D01*
X132788384Y-76197619D01*
X132788385Y-76197620D01*
X132928542Y-76225500D01*
X132928545Y-76225500D01*
X136571457Y-76225500D01*
X136665751Y-76206742D01*
X136711620Y-76197619D01*
X136843653Y-76142929D01*
X136962480Y-76063532D01*
X137983030Y-75042982D01*
X138044353Y-75009497D01*
X138114045Y-75014481D01*
X138158392Y-75042982D01*
X139511016Y-76395606D01*
X139511045Y-76395637D01*
X139601261Y-76485853D01*
X139601265Y-76485856D01*
X139601267Y-76485858D01*
X139626095Y-76502447D01*
X139638679Y-76510856D01*
X139638680Y-76510856D01*
X139638681Y-76510857D01*
X139703714Y-76554312D01*
X139727516Y-76564171D01*
X139764064Y-76579310D01*
X139764069Y-76579311D01*
X139764071Y-76579312D01*
X139817548Y-76601463D01*
X139877971Y-76613481D01*
X139938393Y-76625500D01*
X139938394Y-76625500D01*
X143285564Y-76625500D01*
X143352603Y-76645185D01*
X143373245Y-76661819D01*
X144881281Y-78169856D01*
X144914766Y-78231179D01*
X144909782Y-78300871D01*
X144881282Y-78345218D01*
X144800535Y-78425965D01*
X144701990Y-78573446D01*
X144701983Y-78573459D01*
X144634106Y-78737332D01*
X144634103Y-78737341D01*
X144599500Y-78911304D01*
X144599500Y-79088695D01*
X144634103Y-79262658D01*
X144634106Y-79262667D01*
X144701984Y-79426542D01*
X144701985Y-79426543D01*
X144701987Y-79426547D01*
X144738602Y-79481344D01*
X144753602Y-79503793D01*
X144774480Y-79570470D01*
X144774500Y-79572684D01*
X144774500Y-84648126D01*
X144754815Y-84715165D01*
X144738181Y-84735807D01*
X143235807Y-86238181D01*
X143174484Y-86271666D01*
X143148126Y-86274500D01*
X126851874Y-86274500D01*
X126784835Y-86254815D01*
X126764193Y-86238181D01*
X124354110Y-83828098D01*
X124272516Y-83746504D01*
X131080001Y-83746504D01*
X131080001Y-84145000D01*
X131780001Y-84145000D01*
X131780001Y-84645000D01*
X131080001Y-84645000D01*
X131080001Y-85043495D01*
X131118428Y-85236681D01*
X131118431Y-85236693D01*
X131193808Y-85418671D01*
X131193815Y-85418684D01*
X131303249Y-85582462D01*
X131303252Y-85582466D01*
X131442534Y-85721748D01*
X131442538Y-85721751D01*
X131606316Y-85831185D01*
X131606329Y-85831192D01*
X131788309Y-85906569D01*
X131830001Y-85914862D01*
X131830001Y-85111988D01*
X131839941Y-85129205D01*
X131895796Y-85185060D01*
X131964205Y-85224556D01*
X132040505Y-85245000D01*
X132119497Y-85245000D01*
X132195797Y-85224556D01*
X132264206Y-85185060D01*
X132320061Y-85129205D01*
X132330001Y-85111988D01*
X132330001Y-85914862D01*
X132371691Y-85906569D01*
X132371693Y-85906569D01*
X132553672Y-85831192D01*
X132553685Y-85831185D01*
X132717463Y-85721751D01*
X132717467Y-85721748D01*
X132856749Y-85582466D01*
X132856752Y-85582462D01*
X132969575Y-85413613D01*
X132971008Y-85414570D01*
X133014199Y-85370580D01*
X133082333Y-85355103D01*
X133148019Y-85378919D01*
X133150090Y-85380697D01*
X133150190Y-85380568D01*
X133156631Y-85385510D01*
X133156636Y-85385515D01*
X133287866Y-85461281D01*
X133434235Y-85500500D01*
X133434237Y-85500500D01*
X133585765Y-85500500D01*
X133585767Y-85500500D01*
X133732136Y-85461281D01*
X133863366Y-85385515D01*
X133970516Y-85278365D01*
X134046282Y-85147135D01*
X134085501Y-85000766D01*
X134085501Y-84849234D01*
X138714501Y-84849234D01*
X138714501Y-85000765D01*
X138753720Y-85147136D01*
X138763009Y-85163224D01*
X138829486Y-85278365D01*
X138936636Y-85385515D01*
X139067866Y-85461281D01*
X139214235Y-85500500D01*
X139214237Y-85500500D01*
X139365765Y-85500500D01*
X139365767Y-85500500D01*
X139512136Y-85461281D01*
X139643366Y-85385515D01*
X139643373Y-85385507D01*
X139649812Y-85380568D01*
X139652045Y-85383478D01*
X139698259Y-85357865D01*
X139767981Y-85362411D01*
X139824177Y-85403930D01*
X139830395Y-85413634D01*
X139830427Y-85413613D01*
X139943249Y-85582462D01*
X139943252Y-85582466D01*
X140082534Y-85721748D01*
X140082538Y-85721751D01*
X140246316Y-85831185D01*
X140246329Y-85831192D01*
X140428309Y-85906569D01*
X140470001Y-85914862D01*
X140470001Y-85111988D01*
X140479941Y-85129205D01*
X140535796Y-85185060D01*
X140604205Y-85224556D01*
X140680505Y-85245000D01*
X140759497Y-85245000D01*
X140835797Y-85224556D01*
X140904206Y-85185060D01*
X140960061Y-85129205D01*
X140970001Y-85111988D01*
X140970001Y-85914862D01*
X141011691Y-85906569D01*
X141011693Y-85906569D01*
X141193672Y-85831192D01*
X141193685Y-85831185D01*
X141357463Y-85721751D01*
X141357467Y-85721748D01*
X141496749Y-85582466D01*
X141496752Y-85582462D01*
X141606186Y-85418684D01*
X141606193Y-85418671D01*
X141681570Y-85236693D01*
X141681573Y-85236681D01*
X141720000Y-85043495D01*
X141720001Y-85043492D01*
X141720001Y-84645000D01*
X141020001Y-84645000D01*
X141020001Y-84145000D01*
X141720001Y-84145000D01*
X141720001Y-83746508D01*
X141720000Y-83746504D01*
X141681573Y-83553318D01*
X141681570Y-83553306D01*
X141606193Y-83371328D01*
X141606186Y-83371315D01*
X141496752Y-83207537D01*
X141496749Y-83207533D01*
X141357467Y-83068251D01*
X141357463Y-83068248D01*
X141193685Y-82958814D01*
X141193672Y-82958807D01*
X141011692Y-82883429D01*
X141011684Y-82883427D01*
X140970001Y-82875135D01*
X140970001Y-83678011D01*
X140960061Y-83660795D01*
X140904206Y-83604940D01*
X140835797Y-83565444D01*
X140759497Y-83545000D01*
X140680505Y-83545000D01*
X140604205Y-83565444D01*
X140535796Y-83604940D01*
X140479941Y-83660795D01*
X140470001Y-83678011D01*
X140470001Y-82875136D01*
X140470000Y-82875135D01*
X140428317Y-82883427D01*
X140428309Y-82883429D01*
X140246329Y-82958807D01*
X140246316Y-82958814D01*
X140082538Y-83068248D01*
X140082534Y-83068251D01*
X139943252Y-83207533D01*
X139943249Y-83207537D01*
X139833815Y-83371315D01*
X139833808Y-83371328D01*
X139758431Y-83553306D01*
X139758428Y-83553318D01*
X139720001Y-83746504D01*
X139720001Y-84145000D01*
X140420001Y-84145000D01*
X140420001Y-84645000D01*
X139864465Y-84645000D01*
X139797426Y-84625315D01*
X139757078Y-84583000D01*
X139750518Y-84571638D01*
X139750514Y-84571633D01*
X139643368Y-84464487D01*
X139643366Y-84464485D01*
X139577644Y-84426540D01*
X139512137Y-84388719D01*
X139438951Y-84369109D01*
X139365767Y-84349500D01*
X139214235Y-84349500D01*
X139067864Y-84388719D01*
X138936636Y-84464485D01*
X138936633Y-84464487D01*
X138829488Y-84571632D01*
X138829486Y-84571635D01*
X138753720Y-84702863D01*
X138714501Y-84849234D01*
X134085501Y-84849234D01*
X134046282Y-84702865D01*
X134044318Y-84699464D01*
X134001508Y-84625315D01*
X133970516Y-84571635D01*
X133863366Y-84464485D01*
X133797644Y-84426540D01*
X133732137Y-84388719D01*
X133658951Y-84369109D01*
X133585767Y-84349500D01*
X133434235Y-84349500D01*
X133287864Y-84388719D01*
X133156636Y-84464485D01*
X133156633Y-84464487D01*
X133049487Y-84571633D01*
X133049483Y-84571638D01*
X133042924Y-84583000D01*
X132992357Y-84631216D01*
X132935537Y-84645000D01*
X132380001Y-84645000D01*
X132380001Y-84145000D01*
X133080001Y-84145000D01*
X133080001Y-83746508D01*
X133080000Y-83746504D01*
X133041573Y-83553318D01*
X133041570Y-83553306D01*
X132966193Y-83371328D01*
X132966186Y-83371315D01*
X132856752Y-83207537D01*
X132856749Y-83207533D01*
X132717467Y-83068251D01*
X132717463Y-83068248D01*
X132553685Y-82958814D01*
X132553672Y-82958807D01*
X132371692Y-82883429D01*
X132371684Y-82883427D01*
X132330001Y-82875135D01*
X132330001Y-83678011D01*
X132320061Y-83660795D01*
X132264206Y-83604940D01*
X132195797Y-83565444D01*
X132119497Y-83545000D01*
X132040505Y-83545000D01*
X131964205Y-83565444D01*
X131895796Y-83604940D01*
X131839941Y-83660795D01*
X131830001Y-83678011D01*
X131830001Y-82875136D01*
X131830000Y-82875135D01*
X131788317Y-82883427D01*
X131788309Y-82883429D01*
X131606329Y-82958807D01*
X131606316Y-82958814D01*
X131442538Y-83068248D01*
X131442534Y-83068251D01*
X131303252Y-83207533D01*
X131303249Y-83207537D01*
X131193815Y-83371315D01*
X131193808Y-83371328D01*
X131118431Y-83553306D01*
X131118428Y-83553318D01*
X131080001Y-83746504D01*
X124272516Y-83746504D01*
X116462483Y-75936470D01*
X116462482Y-75936469D01*
X116383981Y-75884017D01*
X116343653Y-75857071D01*
X116308608Y-75842555D01*
X116211620Y-75802381D01*
X116211614Y-75802379D01*
X116071457Y-75774500D01*
X116071455Y-75774500D01*
X112351874Y-75774500D01*
X112284835Y-75754815D01*
X112264193Y-75738181D01*
X110761819Y-74235807D01*
X110728334Y-74174484D01*
X110725500Y-74148126D01*
X110725500Y-72702577D01*
X132400976Y-72702577D01*
X132506237Y-72746178D01*
X132506241Y-72746179D01*
X132651127Y-72774999D01*
X132651130Y-72775000D01*
X132798872Y-72775000D01*
X132798874Y-72774999D01*
X132943761Y-72746179D01*
X132943776Y-72746175D01*
X133049025Y-72702578D01*
X133049025Y-72702577D01*
X133700976Y-72702577D01*
X133806237Y-72746178D01*
X133806241Y-72746179D01*
X133951127Y-72774999D01*
X133951130Y-72775000D01*
X134098872Y-72775000D01*
X134098874Y-72774999D01*
X134243761Y-72746179D01*
X134243776Y-72746175D01*
X134349025Y-72702578D01*
X134349025Y-72702577D01*
X134025002Y-72378554D01*
X134025001Y-72378554D01*
X133700976Y-72702577D01*
X133049025Y-72702577D01*
X132725002Y-72378554D01*
X132725001Y-72378554D01*
X132400976Y-72702577D01*
X110725500Y-72702577D01*
X110725500Y-71951126D01*
X131975001Y-71951126D01*
X131975001Y-72098873D01*
X132003821Y-72243759D01*
X132003823Y-72243767D01*
X132047422Y-72349024D01*
X132371447Y-72025000D01*
X132371447Y-72024999D01*
X132351557Y-72005109D01*
X132625001Y-72005109D01*
X132625001Y-72044891D01*
X132640225Y-72081645D01*
X132668356Y-72109776D01*
X132705110Y-72125000D01*
X132744892Y-72125000D01*
X132781646Y-72109776D01*
X132809777Y-72081645D01*
X132825001Y-72044891D01*
X132825001Y-72025000D01*
X133078555Y-72025000D01*
X133375001Y-72321446D01*
X133671447Y-72025000D01*
X133651556Y-72005109D01*
X133925001Y-72005109D01*
X133925001Y-72044891D01*
X133940225Y-72081645D01*
X133968356Y-72109776D01*
X134005110Y-72125000D01*
X134044892Y-72125000D01*
X134081646Y-72109776D01*
X134109777Y-72081645D01*
X134125001Y-72044891D01*
X134125001Y-72024999D01*
X134378555Y-72024999D01*
X134378555Y-72025001D01*
X134702578Y-72349024D01*
X134702579Y-72349024D01*
X134746176Y-72243775D01*
X134746180Y-72243760D01*
X134775000Y-72098873D01*
X134775001Y-72098871D01*
X134775001Y-71951128D01*
X134775000Y-71951126D01*
X134746180Y-71806240D01*
X134746179Y-71806236D01*
X134702578Y-71700975D01*
X134378555Y-72024999D01*
X134125001Y-72024999D01*
X134125001Y-72005109D01*
X134109777Y-71968355D01*
X134081646Y-71940224D01*
X134044892Y-71925000D01*
X134005110Y-71925000D01*
X133968356Y-71940224D01*
X133940225Y-71968355D01*
X133925001Y-72005109D01*
X133651556Y-72005109D01*
X133375001Y-71728554D01*
X133078555Y-72025000D01*
X132825001Y-72025000D01*
X132825001Y-72005109D01*
X132809777Y-71968355D01*
X132781646Y-71940224D01*
X132744892Y-71925000D01*
X132705110Y-71925000D01*
X132668356Y-71940224D01*
X132640225Y-71968355D01*
X132625001Y-72005109D01*
X132351557Y-72005109D01*
X132047422Y-71700974D01*
X132047421Y-71700974D01*
X132003824Y-71806228D01*
X132003821Y-71806240D01*
X131975001Y-71951126D01*
X110725500Y-71951126D01*
X110725500Y-71525000D01*
X132578555Y-71525000D01*
X132725001Y-71671446D01*
X132871447Y-71525000D01*
X133878555Y-71525000D01*
X134025001Y-71671446D01*
X134171447Y-71525000D01*
X134025001Y-71378554D01*
X133878555Y-71525000D01*
X132871447Y-71525000D01*
X132725001Y-71378554D01*
X132578555Y-71525000D01*
X110725500Y-71525000D01*
X110725500Y-70951126D01*
X131975001Y-70951126D01*
X131975001Y-71098873D01*
X132003821Y-71243759D01*
X132003823Y-71243767D01*
X132047422Y-71349024D01*
X132371447Y-71025000D01*
X132371447Y-71024999D01*
X132351557Y-71005109D01*
X132625001Y-71005109D01*
X132625001Y-71044891D01*
X132640225Y-71081645D01*
X132668356Y-71109776D01*
X132705110Y-71125000D01*
X132744892Y-71125000D01*
X132781646Y-71109776D01*
X132809777Y-71081645D01*
X132825001Y-71044891D01*
X132825001Y-71025000D01*
X133078555Y-71025000D01*
X133375001Y-71321446D01*
X133671447Y-71025000D01*
X133651556Y-71005109D01*
X133925001Y-71005109D01*
X133925001Y-71044891D01*
X133940225Y-71081645D01*
X133968356Y-71109776D01*
X134005110Y-71125000D01*
X134044892Y-71125000D01*
X134081646Y-71109776D01*
X134109777Y-71081645D01*
X134125001Y-71044891D01*
X134125001Y-71024999D01*
X134378555Y-71024999D01*
X134378555Y-71025001D01*
X134702578Y-71349024D01*
X134702579Y-71349024D01*
X134746176Y-71243775D01*
X134746180Y-71243760D01*
X134775000Y-71098873D01*
X134775001Y-71098871D01*
X134775001Y-70951128D01*
X134775000Y-70951126D01*
X134746180Y-70806240D01*
X134746179Y-70806236D01*
X134702578Y-70700975D01*
X134378555Y-71024999D01*
X134125001Y-71024999D01*
X134125001Y-71005109D01*
X134109777Y-70968355D01*
X134081646Y-70940224D01*
X134044892Y-70925000D01*
X134005110Y-70925000D01*
X133968356Y-70940224D01*
X133940225Y-70968355D01*
X133925001Y-71005109D01*
X133651556Y-71005109D01*
X133375001Y-70728554D01*
X133078555Y-71025000D01*
X132825001Y-71025000D01*
X132825001Y-71005109D01*
X132809777Y-70968355D01*
X132781646Y-70940224D01*
X132744892Y-70925000D01*
X132705110Y-70925000D01*
X132668356Y-70940224D01*
X132640225Y-70968355D01*
X132625001Y-71005109D01*
X132351557Y-71005109D01*
X132047422Y-70700974D01*
X132047421Y-70700974D01*
X132003824Y-70806228D01*
X132003821Y-70806240D01*
X131975001Y-70951126D01*
X110725500Y-70951126D01*
X110725500Y-70525000D01*
X132578555Y-70525000D01*
X132725001Y-70671446D01*
X132871447Y-70525000D01*
X133878555Y-70525000D01*
X134025001Y-70671446D01*
X134171447Y-70525000D01*
X134025001Y-70378554D01*
X133878555Y-70525000D01*
X132871447Y-70525000D01*
X132725001Y-70378554D01*
X132578555Y-70525000D01*
X110725500Y-70525000D01*
X110725500Y-69951126D01*
X131975001Y-69951126D01*
X131975001Y-70098873D01*
X132003821Y-70243759D01*
X132003823Y-70243767D01*
X132047422Y-70349024D01*
X132371447Y-70025000D01*
X132371447Y-70024999D01*
X132351557Y-70005109D01*
X132625001Y-70005109D01*
X132625001Y-70044891D01*
X132640225Y-70081645D01*
X132668356Y-70109776D01*
X132705110Y-70125000D01*
X132744892Y-70125000D01*
X132781646Y-70109776D01*
X132809777Y-70081645D01*
X132825001Y-70044891D01*
X132825001Y-70025000D01*
X133078555Y-70025000D01*
X133375001Y-70321446D01*
X133671447Y-70025000D01*
X133651556Y-70005109D01*
X133925001Y-70005109D01*
X133925001Y-70044891D01*
X133940225Y-70081645D01*
X133968356Y-70109776D01*
X134005110Y-70125000D01*
X134044892Y-70125000D01*
X134081646Y-70109776D01*
X134109777Y-70081645D01*
X134125001Y-70044891D01*
X134125001Y-70024999D01*
X134378555Y-70024999D01*
X134378555Y-70025001D01*
X134702578Y-70349024D01*
X134702579Y-70349024D01*
X134746176Y-70243775D01*
X134746180Y-70243760D01*
X134775000Y-70098873D01*
X134775001Y-70098871D01*
X134775001Y-69951128D01*
X134775000Y-69951126D01*
X134746180Y-69806240D01*
X134746179Y-69806236D01*
X134702578Y-69700975D01*
X134378555Y-70024999D01*
X134125001Y-70024999D01*
X134125001Y-70005109D01*
X134109777Y-69968355D01*
X134081646Y-69940224D01*
X134044892Y-69925000D01*
X134005110Y-69925000D01*
X133968356Y-69940224D01*
X133940225Y-69968355D01*
X133925001Y-70005109D01*
X133651556Y-70005109D01*
X133375001Y-69728554D01*
X133078555Y-70025000D01*
X132825001Y-70025000D01*
X132825001Y-70005109D01*
X132809777Y-69968355D01*
X132781646Y-69940224D01*
X132744892Y-69925000D01*
X132705110Y-69925000D01*
X132668356Y-69940224D01*
X132640225Y-69968355D01*
X132625001Y-70005109D01*
X132351557Y-70005109D01*
X132047422Y-69700974D01*
X132047421Y-69700974D01*
X132003824Y-69806228D01*
X132003821Y-69806240D01*
X131975001Y-69951126D01*
X110725500Y-69951126D01*
X110725500Y-69347420D01*
X132400975Y-69347420D01*
X132400975Y-69347421D01*
X132725001Y-69671446D01*
X132725002Y-69671446D01*
X133049025Y-69347421D01*
X133049023Y-69347420D01*
X133700975Y-69347420D01*
X133700975Y-69347421D01*
X134025001Y-69671446D01*
X134025002Y-69671446D01*
X134349025Y-69347421D01*
X134243768Y-69303822D01*
X134243760Y-69303820D01*
X134098873Y-69275000D01*
X133951129Y-69275000D01*
X133806241Y-69303820D01*
X133806229Y-69303823D01*
X133700975Y-69347420D01*
X133049023Y-69347420D01*
X132943768Y-69303822D01*
X132943760Y-69303820D01*
X132798873Y-69275000D01*
X132651129Y-69275000D01*
X132506241Y-69303820D01*
X132506229Y-69303823D01*
X132400975Y-69347420D01*
X110725500Y-69347420D01*
X110725500Y-68911304D01*
X157599500Y-68911304D01*
X157599500Y-69088695D01*
X157634103Y-69262658D01*
X157634106Y-69262667D01*
X157701983Y-69426540D01*
X157701990Y-69426553D01*
X157800535Y-69574034D01*
X157800538Y-69574038D01*
X157925961Y-69699461D01*
X157925965Y-69699464D01*
X158073446Y-69798009D01*
X158073459Y-69798016D01*
X158196363Y-69848923D01*
X158237334Y-69865894D01*
X158237336Y-69865894D01*
X158237341Y-69865896D01*
X158411304Y-69900499D01*
X158411307Y-69900500D01*
X158411309Y-69900500D01*
X158588693Y-69900500D01*
X158588694Y-69900499D01*
X158646682Y-69888964D01*
X158762658Y-69865896D01*
X158762661Y-69865894D01*
X158762666Y-69865894D01*
X158926547Y-69798013D01*
X159074035Y-69699464D01*
X159199464Y-69574035D01*
X159298013Y-69426547D01*
X159365894Y-69262666D01*
X159369909Y-69242485D01*
X159400499Y-69088695D01*
X159400500Y-69088693D01*
X159400500Y-68911306D01*
X159400499Y-68911304D01*
X164099500Y-68911304D01*
X164099500Y-69088695D01*
X164134103Y-69262658D01*
X164134106Y-69262667D01*
X164201983Y-69426540D01*
X164201990Y-69426553D01*
X164300535Y-69574034D01*
X164300538Y-69574038D01*
X164338180Y-69611679D01*
X164371666Y-69673001D01*
X164374500Y-69699361D01*
X164374500Y-72561610D01*
X164398535Y-72682444D01*
X164398537Y-72682452D01*
X164406873Y-72702577D01*
X164412347Y-72715792D01*
X164412347Y-72715793D01*
X164445685Y-72796280D01*
X164445690Y-72796289D01*
X164479914Y-72847507D01*
X164479915Y-72847509D01*
X164514141Y-72898733D01*
X164605586Y-72990178D01*
X164605608Y-72990198D01*
X166063181Y-74447771D01*
X166096666Y-74509094D01*
X166099500Y-74535452D01*
X166099500Y-74588695D01*
X166134103Y-74762658D01*
X166134106Y-74762667D01*
X166201983Y-74926540D01*
X166201990Y-74926553D01*
X166300535Y-75074034D01*
X166300538Y-75074038D01*
X166425961Y-75199461D01*
X166425965Y-75199464D01*
X166573446Y-75298009D01*
X166573459Y-75298016D01*
X166670428Y-75338181D01*
X166737334Y-75365894D01*
X166737336Y-75365894D01*
X166737341Y-75365896D01*
X166911304Y-75400499D01*
X166911307Y-75400500D01*
X166911309Y-75400500D01*
X167088693Y-75400500D01*
X167088694Y-75400499D01*
X167158983Y-75386518D01*
X167262658Y-75365896D01*
X167262661Y-75365894D01*
X167262666Y-75365894D01*
X167426547Y-75298013D01*
X167574035Y-75199464D01*
X167699464Y-75074035D01*
X167798013Y-74926547D01*
X167865894Y-74762666D01*
X167867367Y-74755264D01*
X167900499Y-74588695D01*
X167900500Y-74588693D01*
X167900500Y-74411306D01*
X167900499Y-74411304D01*
X167865896Y-74237341D01*
X167865893Y-74237332D01*
X167865261Y-74235807D01*
X167808802Y-74099500D01*
X167798016Y-74073459D01*
X167798009Y-74073446D01*
X167699464Y-73925965D01*
X167699461Y-73925961D01*
X167574038Y-73800538D01*
X167574034Y-73800535D01*
X167426553Y-73701990D01*
X167426540Y-73701983D01*
X167262667Y-73634106D01*
X167262658Y-73634103D01*
X167088694Y-73599500D01*
X167088691Y-73599500D01*
X167035452Y-73599500D01*
X166968413Y-73579815D01*
X166947771Y-73563181D01*
X165661819Y-72277229D01*
X165628334Y-72215906D01*
X165625500Y-72189548D01*
X165625500Y-69699361D01*
X165645185Y-69632322D01*
X165661820Y-69611679D01*
X165699461Y-69574038D01*
X165699464Y-69574035D01*
X165798013Y-69426547D01*
X165865894Y-69262666D01*
X165869909Y-69242485D01*
X165900499Y-69088695D01*
X165900500Y-69088693D01*
X165900500Y-68911306D01*
X165900499Y-68911304D01*
X165865896Y-68737341D01*
X165865893Y-68737332D01*
X165798016Y-68573459D01*
X165798009Y-68573446D01*
X165699464Y-68425965D01*
X165699461Y-68425961D01*
X165574038Y-68300538D01*
X165574034Y-68300535D01*
X165426553Y-68201990D01*
X165426540Y-68201983D01*
X165262667Y-68134106D01*
X165262658Y-68134103D01*
X165088694Y-68099500D01*
X165088691Y-68099500D01*
X164911309Y-68099500D01*
X164911306Y-68099500D01*
X164737341Y-68134103D01*
X164737332Y-68134106D01*
X164573459Y-68201983D01*
X164573446Y-68201990D01*
X164425965Y-68300535D01*
X164425961Y-68300538D01*
X164300538Y-68425961D01*
X164300535Y-68425965D01*
X164201990Y-68573446D01*
X164201983Y-68573459D01*
X164134106Y-68737332D01*
X164134103Y-68737341D01*
X164099500Y-68911304D01*
X159400499Y-68911304D01*
X159365896Y-68737341D01*
X159365893Y-68737332D01*
X159298016Y-68573459D01*
X159298009Y-68573446D01*
X159199464Y-68425965D01*
X159199461Y-68425961D01*
X159161819Y-68388319D01*
X159128334Y-68326996D01*
X159125500Y-68300638D01*
X159125500Y-67310452D01*
X159145185Y-67243413D01*
X159161819Y-67222771D01*
X159584424Y-66800166D01*
X170599500Y-66800166D01*
X170599500Y-68199833D01*
X170610003Y-68302638D01*
X170650870Y-68425965D01*
X170665203Y-68469220D01*
X170757330Y-68618581D01*
X170881419Y-68742670D01*
X171030780Y-68834797D01*
X171178718Y-68883818D01*
X171227396Y-68913843D01*
X171911415Y-69597861D01*
X171826306Y-69620667D01*
X171723694Y-69679910D01*
X171639910Y-69763694D01*
X171580667Y-69866306D01*
X171557861Y-69951414D01*
X170848932Y-69242485D01*
X170848931Y-69242485D01*
X170802616Y-69306233D01*
X170702567Y-69502589D01*
X170634473Y-69712164D01*
X170600000Y-69929818D01*
X170600000Y-70150181D01*
X170634473Y-70367835D01*
X170702567Y-70577410D01*
X170802611Y-70773756D01*
X170848932Y-70837513D01*
X171557861Y-70128584D01*
X171580667Y-70213694D01*
X171639910Y-70316306D01*
X171723694Y-70400090D01*
X171826306Y-70459333D01*
X171911414Y-70482137D01*
X171202485Y-71191065D01*
X171202485Y-71191066D01*
X171227680Y-71209371D01*
X171270346Y-71264701D01*
X171276325Y-71334314D01*
X171243720Y-71396110D01*
X171227681Y-71410008D01*
X171087636Y-71511756D01*
X170931756Y-71667636D01*
X170931752Y-71667641D01*
X170802187Y-71845974D01*
X170702104Y-72042393D01*
X170702103Y-72042396D01*
X170633985Y-72252047D01*
X170599500Y-72469778D01*
X170599500Y-72690221D01*
X170633985Y-72907952D01*
X170702103Y-73117603D01*
X170702104Y-73117606D01*
X170802187Y-73314025D01*
X170931752Y-73492358D01*
X170931756Y-73492363D01*
X171087636Y-73648243D01*
X171087641Y-73648247D01*
X171243192Y-73761260D01*
X171265978Y-73777815D01*
X171389808Y-73840910D01*
X171462393Y-73877895D01*
X171462396Y-73877896D01*
X171567221Y-73911955D01*
X171672049Y-73946015D01*
X171889778Y-73980500D01*
X171889779Y-73980500D01*
X172110221Y-73980500D01*
X172110222Y-73980500D01*
X172327951Y-73946015D01*
X172537606Y-73877895D01*
X172734022Y-73777815D01*
X172912365Y-73648242D01*
X173068242Y-73492365D01*
X173197815Y-73314022D01*
X173297895Y-73117606D01*
X173366015Y-72907951D01*
X173400500Y-72690222D01*
X173400500Y-72469778D01*
X173366015Y-72252049D01*
X173324735Y-72125000D01*
X173297896Y-72042396D01*
X173297895Y-72042393D01*
X173238079Y-71925000D01*
X173197815Y-71845978D01*
X173092465Y-71700975D01*
X173068247Y-71667641D01*
X173068243Y-71667636D01*
X172912363Y-71511756D01*
X172912358Y-71511752D01*
X172772319Y-71410008D01*
X172729653Y-71354678D01*
X172723674Y-71285065D01*
X172756279Y-71223270D01*
X172772319Y-71209372D01*
X172797513Y-71191066D01*
X172797514Y-71191066D01*
X172088585Y-70482138D01*
X172173694Y-70459333D01*
X172276306Y-70400090D01*
X172360090Y-70316306D01*
X172419333Y-70213694D01*
X172442137Y-70128585D01*
X173151066Y-70837514D01*
X173151066Y-70837513D01*
X173197386Y-70773760D01*
X173297432Y-70577410D01*
X173365526Y-70367835D01*
X173400000Y-70150181D01*
X173400000Y-69929818D01*
X173365526Y-69712164D01*
X173297432Y-69502589D01*
X173197388Y-69306243D01*
X173151066Y-69242485D01*
X173151065Y-69242485D01*
X172442137Y-69951413D01*
X172419333Y-69866306D01*
X172360090Y-69763694D01*
X172276306Y-69679910D01*
X172173694Y-69620667D01*
X172088582Y-69597861D01*
X172772601Y-68913844D01*
X172821279Y-68883819D01*
X172821282Y-68883818D01*
X172969220Y-68834797D01*
X173118581Y-68742670D01*
X173242670Y-68618581D01*
X173334797Y-68469220D01*
X173389996Y-68302638D01*
X173400500Y-68199826D01*
X173400500Y-66800174D01*
X173389996Y-66697362D01*
X173334797Y-66530780D01*
X173242670Y-66381419D01*
X173118581Y-66257330D01*
X172969220Y-66165203D01*
X172969217Y-66165202D01*
X172802638Y-66110003D01*
X172699833Y-66099500D01*
X172699826Y-66099500D01*
X171300174Y-66099500D01*
X171300166Y-66099500D01*
X171197361Y-66110003D01*
X171030782Y-66165202D01*
X171030777Y-66165204D01*
X170881417Y-66257331D01*
X170757331Y-66381417D01*
X170665204Y-66530777D01*
X170665202Y-66530782D01*
X170610003Y-66697361D01*
X170599500Y-66800166D01*
X159584424Y-66800166D01*
X161222771Y-65161819D01*
X161284094Y-65128334D01*
X161310452Y-65125500D01*
X163300639Y-65125500D01*
X163367678Y-65145185D01*
X163388321Y-65161820D01*
X163425961Y-65199461D01*
X163425965Y-65199464D01*
X163573446Y-65298009D01*
X163573459Y-65298016D01*
X163696363Y-65348923D01*
X163737334Y-65365894D01*
X163737336Y-65365894D01*
X163737341Y-65365896D01*
X163911304Y-65400499D01*
X163911307Y-65400500D01*
X163911309Y-65400500D01*
X164088693Y-65400500D01*
X164088694Y-65400499D01*
X164146682Y-65388964D01*
X164262658Y-65365896D01*
X164262661Y-65365894D01*
X164262666Y-65365894D01*
X164426547Y-65298013D01*
X164574035Y-65199464D01*
X164699464Y-65074035D01*
X164798013Y-64926547D01*
X164865894Y-64762666D01*
X164875239Y-64715680D01*
X164907622Y-64653772D01*
X164909117Y-64652249D01*
X165542952Y-64018416D01*
X165592186Y-63944729D01*
X165625084Y-63895495D01*
X165681658Y-63758913D01*
X165693777Y-63697989D01*
X165710500Y-63613920D01*
X165710500Y-60119778D01*
X169599500Y-60119778D01*
X169599500Y-60340221D01*
X169633985Y-60557952D01*
X169702103Y-60767603D01*
X169702104Y-60767606D01*
X169709883Y-60782872D01*
X169781868Y-60924149D01*
X169802187Y-60964025D01*
X169931752Y-61142358D01*
X169931756Y-61142363D01*
X169981928Y-61192535D01*
X170015413Y-61253858D01*
X170010429Y-61323550D01*
X169968557Y-61379483D01*
X169937581Y-61396398D01*
X169857669Y-61426203D01*
X169857664Y-61426206D01*
X169742455Y-61512452D01*
X169742452Y-61512455D01*
X169656206Y-61627664D01*
X169656202Y-61627671D01*
X169605908Y-61762517D01*
X169599501Y-61822116D01*
X169599501Y-61822123D01*
X169599500Y-61822135D01*
X169599500Y-63717870D01*
X169599501Y-63717876D01*
X169605908Y-63777483D01*
X169656202Y-63912328D01*
X169656206Y-63912335D01*
X169742452Y-64027544D01*
X169742455Y-64027547D01*
X169857664Y-64113793D01*
X169857671Y-64113797D01*
X169992517Y-64164091D01*
X169992516Y-64164091D01*
X169999444Y-64164835D01*
X170052127Y-64170500D01*
X171947872Y-64170499D01*
X172007483Y-64164091D01*
X172142331Y-64113796D01*
X172257546Y-64027546D01*
X172343796Y-63912331D01*
X172394091Y-63777483D01*
X172400500Y-63717873D01*
X172400499Y-61822128D01*
X172394091Y-61762517D01*
X172343796Y-61627669D01*
X172343795Y-61627668D01*
X172343793Y-61627664D01*
X172257547Y-61512455D01*
X172257544Y-61512452D01*
X172142335Y-61426206D01*
X172142328Y-61426202D01*
X172062419Y-61396398D01*
X172006485Y-61354527D01*
X171982068Y-61289062D01*
X171996920Y-61220789D01*
X172018069Y-61192537D01*
X172068242Y-61142365D01*
X172197815Y-60964022D01*
X172297895Y-60767606D01*
X172366015Y-60557951D01*
X172400500Y-60340222D01*
X172400500Y-60119778D01*
X172366015Y-59902049D01*
X172321974Y-59766503D01*
X172297896Y-59692396D01*
X172297895Y-59692393D01*
X172226797Y-59552858D01*
X172197815Y-59495978D01*
X172147031Y-59426079D01*
X172068247Y-59317641D01*
X172068243Y-59317636D01*
X171912363Y-59161756D01*
X171912358Y-59161752D01*
X171734025Y-59032187D01*
X171734024Y-59032186D01*
X171734022Y-59032185D01*
X171671096Y-59000122D01*
X171537606Y-58932104D01*
X171537603Y-58932103D01*
X171327952Y-58863985D01*
X171219086Y-58846742D01*
X171110222Y-58829500D01*
X170889778Y-58829500D01*
X170817201Y-58840995D01*
X170672047Y-58863985D01*
X170462396Y-58932103D01*
X170462393Y-58932104D01*
X170265974Y-59032187D01*
X170087641Y-59161752D01*
X170087636Y-59161756D01*
X169931756Y-59317636D01*
X169931752Y-59317641D01*
X169802187Y-59495974D01*
X169702104Y-59692393D01*
X169702103Y-59692396D01*
X169633985Y-59902047D01*
X169599500Y-60119778D01*
X165710500Y-60119778D01*
X165710500Y-56535269D01*
X165730185Y-56468230D01*
X165731398Y-56466378D01*
X165758013Y-56426547D01*
X165825894Y-56262666D01*
X165860500Y-56088691D01*
X165860500Y-55911309D01*
X165860500Y-55911306D01*
X165860499Y-55911304D01*
X165825896Y-55737341D01*
X165825893Y-55737332D01*
X165818265Y-55718917D01*
X165787444Y-55644507D01*
X165758016Y-55573459D01*
X165758009Y-55573446D01*
X165659464Y-55425965D01*
X165659461Y-55425961D01*
X165534038Y-55300538D01*
X165534034Y-55300535D01*
X165386553Y-55201990D01*
X165386540Y-55201983D01*
X165222667Y-55134106D01*
X165222658Y-55134103D01*
X165048694Y-55099500D01*
X165048691Y-55099500D01*
X164871309Y-55099500D01*
X164871306Y-55099500D01*
X164697341Y-55134103D01*
X164697332Y-55134106D01*
X164533459Y-55201983D01*
X164533446Y-55201990D01*
X164385965Y-55300535D01*
X164385961Y-55300538D01*
X164260538Y-55425961D01*
X164260535Y-55425965D01*
X164161990Y-55573446D01*
X164161983Y-55573459D01*
X164094106Y-55737332D01*
X164094103Y-55737341D01*
X164059500Y-55911304D01*
X164059500Y-56088695D01*
X164094103Y-56262658D01*
X164094106Y-56262667D01*
X164161984Y-56426542D01*
X164161985Y-56426543D01*
X164161987Y-56426547D01*
X164188602Y-56466378D01*
X164209480Y-56533055D01*
X164209500Y-56535269D01*
X164209500Y-63177769D01*
X164189815Y-63244808D01*
X164173181Y-63265450D01*
X163847807Y-63590823D01*
X163786484Y-63624308D01*
X163784319Y-63624759D01*
X163737337Y-63634104D01*
X163737331Y-63634106D01*
X163573459Y-63701983D01*
X163573446Y-63701990D01*
X163425965Y-63800535D01*
X163425961Y-63800538D01*
X163388321Y-63838180D01*
X163326999Y-63871666D01*
X163300639Y-63874500D01*
X160938389Y-63874500D01*
X160877971Y-63886518D01*
X160817548Y-63898537D01*
X160817546Y-63898537D01*
X160817545Y-63898538D01*
X160817543Y-63898538D01*
X160784245Y-63912331D01*
X160703715Y-63945686D01*
X160693627Y-63952428D01*
X160693626Y-63952429D01*
X160601268Y-64014140D01*
X160557705Y-64057703D01*
X160514142Y-64101267D01*
X158014144Y-66601264D01*
X158014138Y-66601272D01*
X157979914Y-66652489D01*
X157979915Y-66652490D01*
X157945691Y-66703708D01*
X157945684Y-66703721D01*
X157933352Y-66733496D01*
X157898538Y-66817544D01*
X157898535Y-66817556D01*
X157874500Y-66938389D01*
X157874500Y-68300638D01*
X157854815Y-68367677D01*
X157838181Y-68388319D01*
X157800538Y-68425961D01*
X157800535Y-68425965D01*
X157701990Y-68573446D01*
X157701983Y-68573459D01*
X157634106Y-68737332D01*
X157634103Y-68737341D01*
X157599500Y-68911304D01*
X110725500Y-68911304D01*
X110725500Y-64421153D01*
X121199500Y-64421153D01*
X121199500Y-64578846D01*
X121230261Y-64733489D01*
X121230264Y-64733501D01*
X121290602Y-64879172D01*
X121290609Y-64879185D01*
X121378210Y-65010288D01*
X121378212Y-65010291D01*
X121489707Y-65121786D01*
X121489711Y-65121789D01*
X121620814Y-65209390D01*
X121620827Y-65209397D01*
X121766498Y-65269735D01*
X121766503Y-65269737D01*
X121908635Y-65298009D01*
X121921153Y-65300499D01*
X121921156Y-65300500D01*
X121921158Y-65300500D01*
X122078844Y-65300500D01*
X122078845Y-65300499D01*
X122233497Y-65269737D01*
X122379179Y-65209394D01*
X122473459Y-65146398D01*
X122540136Y-65125520D01*
X122542350Y-65125500D01*
X155061607Y-65125500D01*
X155122029Y-65113481D01*
X155182452Y-65101463D01*
X155227141Y-65082952D01*
X155296286Y-65054312D01*
X155362169Y-65010289D01*
X155398733Y-64985858D01*
X155485858Y-64898733D01*
X155485858Y-64898731D01*
X155496066Y-64888524D01*
X155496067Y-64888521D01*
X158162821Y-62221768D01*
X158224142Y-62188285D01*
X158293834Y-62193269D01*
X158349767Y-62235141D01*
X158374184Y-62300605D01*
X158374500Y-62309451D01*
X158374500Y-62689547D01*
X158354815Y-62756586D01*
X158338181Y-62777228D01*
X155277229Y-65838181D01*
X155215906Y-65871666D01*
X155189548Y-65874500D01*
X122542350Y-65874500D01*
X122475311Y-65854815D01*
X122473459Y-65853602D01*
X122379184Y-65790609D01*
X122379172Y-65790602D01*
X122233501Y-65730264D01*
X122233489Y-65730261D01*
X122078845Y-65699500D01*
X122078842Y-65699500D01*
X121921158Y-65699500D01*
X121921155Y-65699500D01*
X121766510Y-65730261D01*
X121766498Y-65730264D01*
X121620827Y-65790602D01*
X121620814Y-65790609D01*
X121489711Y-65878210D01*
X121489707Y-65878213D01*
X121378213Y-65989707D01*
X121378210Y-65989711D01*
X121290609Y-66120814D01*
X121290602Y-66120827D01*
X121230264Y-66266498D01*
X121230261Y-66266510D01*
X121199500Y-66421153D01*
X121199500Y-66578846D01*
X121230261Y-66733489D01*
X121230264Y-66733501D01*
X121290602Y-66879172D01*
X121290609Y-66879185D01*
X121378210Y-67010288D01*
X121378213Y-67010292D01*
X121489707Y-67121786D01*
X121489711Y-67121789D01*
X121620814Y-67209390D01*
X121620827Y-67209397D01*
X121766498Y-67269735D01*
X121766503Y-67269737D01*
X121921153Y-67300499D01*
X121921156Y-67300500D01*
X121921158Y-67300500D01*
X122078844Y-67300500D01*
X122078845Y-67300499D01*
X122233497Y-67269737D01*
X122379179Y-67209394D01*
X122473459Y-67146398D01*
X122540136Y-67125520D01*
X122542350Y-67125500D01*
X155561607Y-67125500D01*
X155622029Y-67113481D01*
X155682452Y-67101463D01*
X155682455Y-67101461D01*
X155682458Y-67101461D01*
X155715787Y-67087654D01*
X155715786Y-67087654D01*
X155715792Y-67087652D01*
X155796286Y-67054312D01*
X155862169Y-67010289D01*
X155898733Y-66985858D01*
X155985858Y-66898733D01*
X155985858Y-66898731D01*
X155996066Y-66888524D01*
X155996067Y-66888521D01*
X159485857Y-63398734D01*
X159554311Y-63296286D01*
X159601463Y-63182452D01*
X159625500Y-63061607D01*
X159625500Y-62938394D01*
X159625500Y-62938393D01*
X159625500Y-48938394D01*
X159601463Y-48817548D01*
X159574244Y-48751835D01*
X159554312Y-48703714D01*
X159488847Y-48605741D01*
X159488844Y-48605732D01*
X159488842Y-48605734D01*
X159485858Y-48601267D01*
X159398733Y-48514142D01*
X159398732Y-48514141D01*
X159395621Y-48511030D01*
X159395606Y-48511016D01*
X157825793Y-46941203D01*
X157792308Y-46879880D01*
X157791887Y-46877864D01*
X157769737Y-46766503D01*
X157745599Y-46708230D01*
X157709397Y-46620827D01*
X157709390Y-46620814D01*
X157621789Y-46489711D01*
X157621786Y-46489707D01*
X157510292Y-46378213D01*
X157510288Y-46378210D01*
X157379185Y-46290609D01*
X157379172Y-46290602D01*
X157233501Y-46230264D01*
X157233489Y-46230261D01*
X157078845Y-46199500D01*
X157078842Y-46199500D01*
X156921158Y-46199500D01*
X156921155Y-46199500D01*
X156766510Y-46230261D01*
X156766498Y-46230264D01*
X156620827Y-46290602D01*
X156620814Y-46290609D01*
X156489711Y-46378210D01*
X156489707Y-46378213D01*
X156378213Y-46489707D01*
X156378210Y-46489711D01*
X156290609Y-46620814D01*
X156290602Y-46620827D01*
X156230264Y-46766498D01*
X156230261Y-46766510D01*
X156199500Y-46921153D01*
X156199500Y-47078846D01*
X156230261Y-47233489D01*
X156230264Y-47233501D01*
X156290602Y-47379172D01*
X156290609Y-47379185D01*
X156378210Y-47510288D01*
X156378213Y-47510292D01*
X156489707Y-47621786D01*
X156489711Y-47621789D01*
X156620814Y-47709390D01*
X156620827Y-47709397D01*
X156708230Y-47745599D01*
X156766503Y-47769737D01*
X156877716Y-47791858D01*
X156939623Y-47824241D01*
X156941203Y-47825793D01*
X158338181Y-49222771D01*
X158371666Y-49284094D01*
X158374500Y-49310452D01*
X158374500Y-50190547D01*
X158354815Y-50257586D01*
X158302011Y-50303341D01*
X158232853Y-50313285D01*
X158169297Y-50284260D01*
X158162819Y-50278228D01*
X157825793Y-49941203D01*
X157792308Y-49879880D01*
X157791887Y-49877864D01*
X157769737Y-49766503D01*
X157725139Y-49658832D01*
X157709397Y-49620827D01*
X157709390Y-49620814D01*
X157621789Y-49489711D01*
X157621786Y-49489707D01*
X157510292Y-49378213D01*
X157510288Y-49378210D01*
X157379185Y-49290609D01*
X157379172Y-49290602D01*
X157233501Y-49230264D01*
X157233489Y-49230261D01*
X157078845Y-49199500D01*
X157078842Y-49199500D01*
X156921158Y-49199500D01*
X156921155Y-49199500D01*
X156766510Y-49230261D01*
X156766498Y-49230264D01*
X156620827Y-49290602D01*
X156620814Y-49290609D01*
X156489711Y-49378210D01*
X156489707Y-49378213D01*
X156378213Y-49489707D01*
X156378210Y-49489711D01*
X156290609Y-49620814D01*
X156290602Y-49620827D01*
X156230264Y-49766498D01*
X156230261Y-49766510D01*
X156199500Y-49921153D01*
X156199500Y-50078846D01*
X156230261Y-50233489D01*
X156230264Y-50233501D01*
X156290602Y-50379172D01*
X156290609Y-50379185D01*
X156378210Y-50510288D01*
X156378213Y-50510292D01*
X156489707Y-50621786D01*
X156489711Y-50621789D01*
X156620814Y-50709390D01*
X156620827Y-50709397D01*
X156708230Y-50745599D01*
X156766503Y-50769737D01*
X156877716Y-50791858D01*
X156939623Y-50824241D01*
X156941203Y-50825793D01*
X157838181Y-51722771D01*
X157871666Y-51784094D01*
X157874500Y-51810452D01*
X157874500Y-59459145D01*
X157854815Y-59526184D01*
X157802011Y-59571939D01*
X157732853Y-59581883D01*
X157669297Y-59552858D01*
X157647399Y-59528037D01*
X157621791Y-59489713D01*
X157621786Y-59489707D01*
X157510292Y-59378213D01*
X157510288Y-59378210D01*
X157379185Y-59290609D01*
X157379172Y-59290602D01*
X157233501Y-59230264D01*
X157233489Y-59230261D01*
X157078845Y-59199500D01*
X157078842Y-59199500D01*
X156921158Y-59199500D01*
X156921155Y-59199500D01*
X156766510Y-59230261D01*
X156766498Y-59230264D01*
X156620827Y-59290602D01*
X156620814Y-59290609D01*
X156489711Y-59378210D01*
X156489707Y-59378213D01*
X156378213Y-59489707D01*
X156378210Y-59489711D01*
X156290609Y-59620814D01*
X156290602Y-59620827D01*
X156230264Y-59766498D01*
X156230261Y-59766510D01*
X156199500Y-59921153D01*
X156199500Y-60078846D01*
X156230261Y-60233489D01*
X156230264Y-60233501D01*
X156290602Y-60379172D01*
X156290609Y-60379185D01*
X156378210Y-60510288D01*
X156378213Y-60510292D01*
X156489707Y-60621786D01*
X156489711Y-60621789D01*
X156620814Y-60709390D01*
X156620821Y-60709394D01*
X156651030Y-60721906D01*
X156705433Y-60765747D01*
X156727499Y-60832040D01*
X156710221Y-60899740D01*
X156691259Y-60924149D01*
X155277229Y-62338181D01*
X155215906Y-62371666D01*
X155189548Y-62374500D01*
X133810453Y-62374500D01*
X133743414Y-62354815D01*
X133722772Y-62338181D01*
X133161819Y-61777228D01*
X133128334Y-61715905D01*
X133125500Y-61689547D01*
X133125500Y-59938396D01*
X133125500Y-59938394D01*
X133101463Y-59817548D01*
X133098696Y-59810867D01*
X133085814Y-59779767D01*
X133054314Y-59703719D01*
X133054312Y-59703714D01*
X133001109Y-59624092D01*
X133001109Y-59624091D01*
X132985858Y-59601267D01*
X132985853Y-59601261D01*
X132895637Y-59511045D01*
X132895606Y-59511016D01*
X131325793Y-57941203D01*
X131292308Y-57879880D01*
X131291887Y-57877864D01*
X131269737Y-57766503D01*
X131241968Y-57699461D01*
X131209397Y-57620827D01*
X131209390Y-57620814D01*
X131121789Y-57489711D01*
X131121786Y-57489707D01*
X131010292Y-57378213D01*
X131010288Y-57378210D01*
X130879185Y-57290609D01*
X130879172Y-57290602D01*
X130733501Y-57230264D01*
X130733489Y-57230261D01*
X130578845Y-57199500D01*
X130578842Y-57199500D01*
X130421158Y-57199500D01*
X130421155Y-57199500D01*
X130266510Y-57230261D01*
X130266498Y-57230264D01*
X130120827Y-57290602D01*
X130120814Y-57290609D01*
X129989711Y-57378210D01*
X129989707Y-57378213D01*
X129878213Y-57489707D01*
X129878210Y-57489711D01*
X129790609Y-57620814D01*
X129790602Y-57620827D01*
X129730264Y-57766498D01*
X129730261Y-57766510D01*
X129699500Y-57921153D01*
X129699500Y-58078846D01*
X129730261Y-58233489D01*
X129730264Y-58233501D01*
X129790602Y-58379172D01*
X129790609Y-58379185D01*
X129878210Y-58510288D01*
X129878213Y-58510292D01*
X129989707Y-58621786D01*
X129989711Y-58621789D01*
X130120814Y-58709390D01*
X130120827Y-58709397D01*
X130208230Y-58745599D01*
X130266503Y-58769737D01*
X130377716Y-58791858D01*
X130439623Y-58824241D01*
X130441203Y-58825793D01*
X131838181Y-60222771D01*
X131871666Y-60284094D01*
X131874500Y-60310452D01*
X131874500Y-62061610D01*
X131898535Y-62182444D01*
X131898538Y-62182454D01*
X131912347Y-62215792D01*
X131912347Y-62215793D01*
X131945685Y-62296280D01*
X131945690Y-62296289D01*
X131979914Y-62347507D01*
X131979915Y-62347509D01*
X132014140Y-62398731D01*
X132014141Y-62398732D01*
X132014142Y-62398733D01*
X132101267Y-62485858D01*
X132101268Y-62485858D01*
X132108335Y-62492925D01*
X132108334Y-62492925D01*
X132108338Y-62492928D01*
X133101263Y-63485855D01*
X133101267Y-63485858D01*
X133203710Y-63554309D01*
X133203711Y-63554309D01*
X133203715Y-63554312D01*
X133270396Y-63581931D01*
X133270398Y-63581933D01*
X133317543Y-63601461D01*
X133317548Y-63601463D01*
X133337597Y-63605451D01*
X133371196Y-63612134D01*
X133438392Y-63625501D01*
X133438394Y-63625501D01*
X133567721Y-63625501D01*
X133567741Y-63625500D01*
X154690548Y-63625500D01*
X154757587Y-63645185D01*
X154803342Y-63697989D01*
X154813286Y-63767147D01*
X154784261Y-63830703D01*
X154778229Y-63837181D01*
X154777229Y-63838181D01*
X154715906Y-63871666D01*
X154689548Y-63874500D01*
X122542350Y-63874500D01*
X122475311Y-63854815D01*
X122473459Y-63853602D01*
X122379184Y-63790609D01*
X122379172Y-63790602D01*
X122233501Y-63730264D01*
X122233489Y-63730261D01*
X122078845Y-63699500D01*
X122078842Y-63699500D01*
X121921158Y-63699500D01*
X121921155Y-63699500D01*
X121766510Y-63730261D01*
X121766498Y-63730264D01*
X121620827Y-63790602D01*
X121620814Y-63790609D01*
X121489711Y-63878210D01*
X121489707Y-63878213D01*
X121378213Y-63989707D01*
X121378210Y-63989711D01*
X121290609Y-64120814D01*
X121290602Y-64120827D01*
X121230264Y-64266498D01*
X121230261Y-64266510D01*
X121199500Y-64421153D01*
X110725500Y-64421153D01*
X110725500Y-61851874D01*
X110745185Y-61784835D01*
X110761819Y-61764193D01*
X113066867Y-59459145D01*
X115408554Y-57117457D01*
X115469875Y-57083974D01*
X115539567Y-57088958D01*
X115595500Y-57130830D01*
X115617850Y-57180947D01*
X115634104Y-57262661D01*
X115634106Y-57262667D01*
X115701983Y-57426540D01*
X115701990Y-57426553D01*
X115800535Y-57574034D01*
X115800538Y-57574038D01*
X115925961Y-57699461D01*
X115925965Y-57699464D01*
X116073446Y-57798009D01*
X116073459Y-57798016D01*
X116196363Y-57848923D01*
X116237334Y-57865894D01*
X116237336Y-57865894D01*
X116237341Y-57865896D01*
X116411304Y-57900499D01*
X116411307Y-57900500D01*
X116411309Y-57900500D01*
X116588693Y-57900500D01*
X116588694Y-57900499D01*
X116646682Y-57888964D01*
X116762658Y-57865896D01*
X116762661Y-57865894D01*
X116762666Y-57865894D01*
X116926547Y-57798013D01*
X117074035Y-57699464D01*
X117199464Y-57574035D01*
X117298013Y-57426547D01*
X117365894Y-57262666D01*
X117373324Y-57225308D01*
X117405709Y-57163398D01*
X117466425Y-57128824D01*
X117494942Y-57125500D01*
X121561607Y-57125500D01*
X121622029Y-57113481D01*
X121682452Y-57101463D01*
X121682455Y-57101461D01*
X121682458Y-57101461D01*
X121715787Y-57087654D01*
X121715786Y-57087654D01*
X121715792Y-57087652D01*
X121796286Y-57054312D01*
X121847509Y-57020084D01*
X121898733Y-56985858D01*
X121985858Y-56898733D01*
X121985858Y-56898731D01*
X121996066Y-56888524D01*
X121996067Y-56888521D01*
X122985858Y-55898733D01*
X123054312Y-55796285D01*
X123086359Y-55718917D01*
X123089381Y-55711621D01*
X123089381Y-55711620D01*
X123101463Y-55682452D01*
X123109011Y-55644505D01*
X123123052Y-55573918D01*
X123125501Y-55561608D01*
X123125501Y-55433283D01*
X123125500Y-55433257D01*
X123125500Y-46810452D01*
X123145185Y-46743413D01*
X123161819Y-46722771D01*
X123947772Y-45936819D01*
X124009095Y-45903334D01*
X124035453Y-45900500D01*
X124088693Y-45900500D01*
X124088694Y-45900499D01*
X124146682Y-45888964D01*
X124262658Y-45865896D01*
X124262661Y-45865894D01*
X124262666Y-45865894D01*
X124426547Y-45798013D01*
X124574035Y-45699464D01*
X124699464Y-45574035D01*
X124798013Y-45426547D01*
X124865894Y-45262666D01*
X124900500Y-45088691D01*
X124900500Y-45022135D01*
X161149500Y-45022135D01*
X161149500Y-46817870D01*
X161149501Y-46817876D01*
X161155908Y-46877483D01*
X161206202Y-47012328D01*
X161206206Y-47012335D01*
X161292452Y-47127544D01*
X161292455Y-47127547D01*
X161407664Y-47213793D01*
X161407671Y-47213797D01*
X161539082Y-47262810D01*
X161595016Y-47304681D01*
X161619433Y-47370145D01*
X161604582Y-47438418D01*
X161583431Y-47466673D01*
X161469889Y-47580215D01*
X161344951Y-47752179D01*
X161248444Y-47941585D01*
X161182753Y-48143760D01*
X161166885Y-48243947D01*
X161149500Y-48353713D01*
X161149500Y-48566287D01*
X161182754Y-48776243D01*
X161245614Y-48969706D01*
X161248444Y-48978414D01*
X161344951Y-49167820D01*
X161469890Y-49339786D01*
X161620213Y-49490109D01*
X161792179Y-49615048D01*
X161792181Y-49615049D01*
X161792184Y-49615051D01*
X161801493Y-49619794D01*
X161852290Y-49667766D01*
X161869087Y-49735587D01*
X161846552Y-49801722D01*
X161801505Y-49840760D01*
X161792446Y-49845376D01*
X161792440Y-49845380D01*
X161738282Y-49884727D01*
X161738282Y-49884728D01*
X162370591Y-50517037D01*
X162307007Y-50534075D01*
X162192993Y-50599901D01*
X162099901Y-50692993D01*
X162034075Y-50807007D01*
X162017037Y-50870591D01*
X161384728Y-50238282D01*
X161384727Y-50238282D01*
X161345380Y-50292439D01*
X161248904Y-50481782D01*
X161183242Y-50683869D01*
X161183242Y-50683872D01*
X161150000Y-50893753D01*
X161150000Y-51106246D01*
X161183242Y-51316127D01*
X161183242Y-51316130D01*
X161248904Y-51518217D01*
X161345375Y-51707550D01*
X161384728Y-51761716D01*
X162017037Y-51129408D01*
X162034075Y-51192993D01*
X162099901Y-51307007D01*
X162192993Y-51400099D01*
X162307007Y-51465925D01*
X162370590Y-51482962D01*
X161738282Y-52115269D01*
X161738282Y-52115270D01*
X161792452Y-52154626D01*
X161792451Y-52154626D01*
X161801495Y-52159234D01*
X161852292Y-52207208D01*
X161869087Y-52275029D01*
X161846550Y-52341164D01*
X161801499Y-52380202D01*
X161792182Y-52384949D01*
X161620213Y-52509890D01*
X161469890Y-52660213D01*
X161344951Y-52832179D01*
X161248444Y-53021585D01*
X161182753Y-53223760D01*
X161149500Y-53433713D01*
X161149500Y-53646286D01*
X161182753Y-53856239D01*
X161248444Y-54058414D01*
X161344951Y-54247820D01*
X161469890Y-54419786D01*
X161620213Y-54570109D01*
X161792179Y-54695048D01*
X161792181Y-54695049D01*
X161792184Y-54695051D01*
X161981588Y-54791557D01*
X162183757Y-54857246D01*
X162393713Y-54890500D01*
X162393714Y-54890500D01*
X162606286Y-54890500D01*
X162606287Y-54890500D01*
X162816243Y-54857246D01*
X163018412Y-54791557D01*
X163207816Y-54695051D01*
X163272403Y-54648126D01*
X163379786Y-54570109D01*
X163379788Y-54570106D01*
X163379792Y-54570104D01*
X163530104Y-54419792D01*
X163530106Y-54419788D01*
X163530109Y-54419786D01*
X163655048Y-54247820D01*
X163655047Y-54247820D01*
X163655051Y-54247816D01*
X163751557Y-54058412D01*
X163817246Y-53856243D01*
X163850500Y-53646287D01*
X163850500Y-53433713D01*
X163817246Y-53223757D01*
X163751557Y-53021588D01*
X163655051Y-52832184D01*
X163655049Y-52832181D01*
X163655048Y-52832179D01*
X163530109Y-52660213D01*
X163379786Y-52509890D01*
X163207817Y-52384949D01*
X163198504Y-52380204D01*
X163147707Y-52332230D01*
X163130912Y-52264409D01*
X163153449Y-52198274D01*
X163198507Y-52159232D01*
X163207555Y-52154622D01*
X163261716Y-52115270D01*
X163261717Y-52115270D01*
X162629408Y-51482962D01*
X162692993Y-51465925D01*
X162807007Y-51400099D01*
X162900099Y-51307007D01*
X162965925Y-51192993D01*
X162982962Y-51129408D01*
X163615270Y-51761717D01*
X163615270Y-51761716D01*
X163654622Y-51707554D01*
X163751095Y-51518217D01*
X163816757Y-51316130D01*
X163816757Y-51316127D01*
X163850000Y-51106246D01*
X163850000Y-50893753D01*
X163816757Y-50683872D01*
X163816757Y-50683869D01*
X163751095Y-50481782D01*
X163654624Y-50292449D01*
X163615270Y-50238282D01*
X163615269Y-50238282D01*
X162982962Y-50870590D01*
X162965925Y-50807007D01*
X162900099Y-50692993D01*
X162807007Y-50599901D01*
X162692993Y-50534075D01*
X162629409Y-50517037D01*
X163261716Y-49884728D01*
X163207547Y-49845373D01*
X163207547Y-49845372D01*
X163198500Y-49840763D01*
X163147706Y-49792788D01*
X163130912Y-49724966D01*
X163153451Y-49658832D01*
X163198508Y-49619793D01*
X163207816Y-49615051D01*
X163287007Y-49557515D01*
X163379786Y-49490109D01*
X163379788Y-49490106D01*
X163379792Y-49490104D01*
X163530104Y-49339792D01*
X163530106Y-49339788D01*
X163530109Y-49339786D01*
X163639086Y-49189789D01*
X163655051Y-49167816D01*
X163751557Y-48978412D01*
X163817246Y-48776243D01*
X163850500Y-48566287D01*
X163850500Y-48353713D01*
X163817246Y-48143757D01*
X163751557Y-47941588D01*
X163655051Y-47752184D01*
X163655049Y-47752181D01*
X163655048Y-47752179D01*
X163530109Y-47580213D01*
X163416569Y-47466673D01*
X163383084Y-47405350D01*
X163388068Y-47335658D01*
X163429940Y-47279725D01*
X163460915Y-47262810D01*
X163592331Y-47213796D01*
X163707546Y-47127546D01*
X163793796Y-47012331D01*
X163844091Y-46877483D01*
X163850500Y-46817873D01*
X163850500Y-46411304D01*
X169599500Y-46411304D01*
X169599500Y-46588695D01*
X169634103Y-46762658D01*
X169634106Y-46762667D01*
X169701984Y-46926542D01*
X169701985Y-46926543D01*
X169701987Y-46926547D01*
X169728602Y-46966378D01*
X169749480Y-47033055D01*
X169749500Y-47035269D01*
X169749500Y-55573918D01*
X169749500Y-55573920D01*
X169749499Y-55573920D01*
X169778340Y-55718907D01*
X169778343Y-55718917D01*
X169834913Y-55855489D01*
X169834914Y-55855491D01*
X169834916Y-55855495D01*
X169847559Y-55874417D01*
X169847617Y-55874503D01*
X169847616Y-55874503D01*
X169917046Y-55978414D01*
X169917052Y-55978421D01*
X173713181Y-59774548D01*
X173746666Y-59835871D01*
X173749500Y-59862229D01*
X173749500Y-78137769D01*
X173729815Y-78204808D01*
X173713181Y-78225450D01*
X171347807Y-80590823D01*
X171286484Y-80624308D01*
X171284319Y-80624759D01*
X171237337Y-80634104D01*
X171237331Y-80634106D01*
X171073459Y-80701983D01*
X171073446Y-80701990D01*
X170925965Y-80800535D01*
X170925961Y-80800538D01*
X170800538Y-80925961D01*
X170800535Y-80925965D01*
X170701990Y-81073446D01*
X170701983Y-81073459D01*
X170634106Y-81237332D01*
X170634103Y-81237341D01*
X170599500Y-81411304D01*
X170599500Y-81588695D01*
X170634103Y-81762658D01*
X170634106Y-81762667D01*
X170701983Y-81926540D01*
X170701990Y-81926553D01*
X170800535Y-82074034D01*
X170800538Y-82074038D01*
X170925961Y-82199461D01*
X170925965Y-82199464D01*
X171073446Y-82298009D01*
X171073459Y-82298016D01*
X171196363Y-82348923D01*
X171237334Y-82365894D01*
X171237336Y-82365894D01*
X171237341Y-82365896D01*
X171411304Y-82400499D01*
X171411307Y-82400500D01*
X171411309Y-82400500D01*
X171588693Y-82400500D01*
X171588694Y-82400499D01*
X171646682Y-82388964D01*
X171762658Y-82365896D01*
X171762661Y-82365894D01*
X171762666Y-82365894D01*
X171926547Y-82298013D01*
X172074035Y-82199464D01*
X172199464Y-82074035D01*
X172298013Y-81926547D01*
X172365894Y-81762666D01*
X172375239Y-81715680D01*
X172407622Y-81653772D01*
X172409119Y-81652247D01*
X175082952Y-78978415D01*
X175161114Y-78861436D01*
X175165084Y-78855495D01*
X175214028Y-78737334D01*
X175221659Y-78718912D01*
X175250500Y-78573917D01*
X175250500Y-78426082D01*
X175250500Y-59426082D01*
X175250500Y-59426079D01*
X175221659Y-59281092D01*
X175221658Y-59281091D01*
X175221658Y-59281087D01*
X175221656Y-59281082D01*
X175165087Y-59144511D01*
X175165080Y-59144498D01*
X175082952Y-59021585D01*
X175082951Y-59021584D01*
X174978416Y-58917049D01*
X173145341Y-57083974D01*
X171286819Y-55225451D01*
X171253334Y-55164128D01*
X171250500Y-55137770D01*
X171250500Y-49928711D01*
X174649500Y-49928711D01*
X174649500Y-50171288D01*
X174681161Y-50411785D01*
X174743947Y-50646104D01*
X174816062Y-50820205D01*
X174836776Y-50870212D01*
X174958064Y-51080289D01*
X174958066Y-51080292D01*
X174958067Y-51080293D01*
X175105733Y-51272736D01*
X175105739Y-51272743D01*
X175277256Y-51444260D01*
X175277262Y-51444265D01*
X175469711Y-51591936D01*
X175679788Y-51713224D01*
X175903900Y-51806054D01*
X176138211Y-51868838D01*
X176318586Y-51892584D01*
X176378711Y-51900500D01*
X176378712Y-51900500D01*
X176621289Y-51900500D01*
X176669388Y-51894167D01*
X176861789Y-51868838D01*
X177096100Y-51806054D01*
X177320212Y-51713224D01*
X177530289Y-51591936D01*
X177722738Y-51444265D01*
X177894265Y-51272738D01*
X178041936Y-51080289D01*
X178163224Y-50870212D01*
X178256054Y-50646100D01*
X178318838Y-50411789D01*
X178350500Y-50171288D01*
X178350500Y-49928712D01*
X178344709Y-49884728D01*
X178333782Y-49801722D01*
X178318838Y-49688211D01*
X178256054Y-49453900D01*
X178163224Y-49229788D01*
X178041936Y-49019711D01*
X177894265Y-48827262D01*
X177894260Y-48827256D01*
X177722743Y-48655739D01*
X177722736Y-48655733D01*
X177530293Y-48508067D01*
X177530292Y-48508066D01*
X177530289Y-48508064D01*
X177320212Y-48386776D01*
X177240391Y-48353713D01*
X177096104Y-48293947D01*
X176861785Y-48231161D01*
X176621289Y-48199500D01*
X176621288Y-48199500D01*
X176378712Y-48199500D01*
X176378711Y-48199500D01*
X176138214Y-48231161D01*
X175903895Y-48293947D01*
X175679794Y-48386773D01*
X175679785Y-48386777D01*
X175469706Y-48508067D01*
X175277263Y-48655733D01*
X175277256Y-48655739D01*
X175105739Y-48827256D01*
X175105733Y-48827263D01*
X174958067Y-49019706D01*
X174836777Y-49229785D01*
X174836773Y-49229794D01*
X174743947Y-49453895D01*
X174681161Y-49688214D01*
X174649500Y-49928711D01*
X171250500Y-49928711D01*
X171250500Y-47035269D01*
X171270185Y-46968230D01*
X171271398Y-46966378D01*
X171298013Y-46926547D01*
X171365894Y-46762666D01*
X171366606Y-46759090D01*
X171400499Y-46588695D01*
X171400500Y-46588693D01*
X171400500Y-46411306D01*
X171400499Y-46411304D01*
X171365896Y-46237341D01*
X171365893Y-46237332D01*
X171362965Y-46230264D01*
X171332349Y-46156349D01*
X171298016Y-46073459D01*
X171298009Y-46073446D01*
X171199464Y-45925965D01*
X171199461Y-45925961D01*
X171074038Y-45800538D01*
X171074034Y-45800535D01*
X170926553Y-45701990D01*
X170926540Y-45701983D01*
X170762667Y-45634106D01*
X170762658Y-45634103D01*
X170588694Y-45599500D01*
X170588691Y-45599500D01*
X170411309Y-45599500D01*
X170411306Y-45599500D01*
X170237341Y-45634103D01*
X170237332Y-45634106D01*
X170073459Y-45701983D01*
X170073446Y-45701990D01*
X169925965Y-45800535D01*
X169925961Y-45800538D01*
X169800538Y-45925961D01*
X169800535Y-45925965D01*
X169701990Y-46073446D01*
X169701983Y-46073459D01*
X169634106Y-46237332D01*
X169634103Y-46237341D01*
X169599500Y-46411304D01*
X163850500Y-46411304D01*
X163850499Y-45903334D01*
X163850499Y-45022129D01*
X163850498Y-45022123D01*
X163850497Y-45022116D01*
X163844091Y-44962517D01*
X163793796Y-44827669D01*
X163793795Y-44827668D01*
X163793793Y-44827664D01*
X163707547Y-44712455D01*
X163707544Y-44712452D01*
X163592335Y-44626206D01*
X163592328Y-44626202D01*
X163457482Y-44575908D01*
X163457483Y-44575908D01*
X163397883Y-44569501D01*
X163397881Y-44569500D01*
X163397873Y-44569500D01*
X163397864Y-44569500D01*
X161602129Y-44569500D01*
X161602123Y-44569501D01*
X161542516Y-44575908D01*
X161407671Y-44626202D01*
X161407664Y-44626206D01*
X161292455Y-44712452D01*
X161292452Y-44712455D01*
X161206206Y-44827664D01*
X161206202Y-44827671D01*
X161155908Y-44962517D01*
X161149501Y-45022116D01*
X161149501Y-45022123D01*
X161149500Y-45022135D01*
X124900500Y-45022135D01*
X124900500Y-44911309D01*
X124900500Y-44911306D01*
X124900499Y-44911304D01*
X124865896Y-44737341D01*
X124865893Y-44737332D01*
X124797392Y-44571952D01*
X124789923Y-44502482D01*
X124821199Y-44440003D01*
X124881288Y-44404352D01*
X124911953Y-44400500D01*
X125088693Y-44400500D01*
X125088694Y-44400499D01*
X125146682Y-44388964D01*
X125262658Y-44365896D01*
X125262661Y-44365894D01*
X125262666Y-44365894D01*
X125426547Y-44298013D01*
X125574035Y-44199464D01*
X125699464Y-44074035D01*
X125798013Y-43926547D01*
X125865894Y-43762666D01*
X125900500Y-43588691D01*
X125900500Y-43411309D01*
X125900500Y-43411306D01*
X125900499Y-43411304D01*
X125865896Y-43237341D01*
X125865893Y-43237332D01*
X125798016Y-43073459D01*
X125798009Y-43073446D01*
X125699464Y-42925965D01*
X125699461Y-42925961D01*
X125574038Y-42800538D01*
X125574034Y-42800535D01*
X125464883Y-42727602D01*
X125420078Y-42673990D01*
X125411371Y-42604665D01*
X125441526Y-42541637D01*
X125500969Y-42504918D01*
X125533774Y-42500500D01*
X182875500Y-42500500D01*
X182942539Y-42520185D01*
X182988294Y-42572989D01*
X182999500Y-42624500D01*
X182999500Y-90375500D01*
X182979815Y-90442539D01*
X182927011Y-90488294D01*
X182875500Y-90499500D01*
X109124500Y-90499500D01*
X109057461Y-90479815D01*
X109011706Y-90427011D01*
X109000500Y-90375500D01*
X109000500Y-83378711D01*
X113649500Y-83378711D01*
X113649500Y-83621288D01*
X113676726Y-83828098D01*
X113681162Y-83861789D01*
X113697759Y-83923730D01*
X113743947Y-84096104D01*
X113812940Y-84262667D01*
X113836776Y-84320212D01*
X113958064Y-84530289D01*
X113958066Y-84530292D01*
X113958067Y-84530293D01*
X114105733Y-84722736D01*
X114105739Y-84722743D01*
X114277256Y-84894260D01*
X114277263Y-84894266D01*
X114289081Y-84903334D01*
X114469711Y-85041936D01*
X114679788Y-85163224D01*
X114903900Y-85256054D01*
X115138211Y-85318838D01*
X115318586Y-85342584D01*
X115378711Y-85350500D01*
X115378712Y-85350500D01*
X115621289Y-85350500D01*
X115673312Y-85343651D01*
X115861789Y-85318838D01*
X116096100Y-85256054D01*
X116320212Y-85163224D01*
X116530289Y-85041936D01*
X116722738Y-84894265D01*
X116894265Y-84722738D01*
X117041936Y-84530289D01*
X117163224Y-84320212D01*
X117256054Y-84096100D01*
X117318838Y-83861789D01*
X117350500Y-83621288D01*
X117350500Y-83378712D01*
X117318838Y-83138211D01*
X117256054Y-82903900D01*
X117255769Y-82903213D01*
X117219483Y-82815609D01*
X117163224Y-82679788D01*
X117041936Y-82469711D01*
X116894265Y-82277262D01*
X116894260Y-82277256D01*
X116722743Y-82105739D01*
X116722736Y-82105733D01*
X116530293Y-81958067D01*
X116530292Y-81958066D01*
X116530289Y-81958064D01*
X116320212Y-81836776D01*
X116320205Y-81836773D01*
X116096104Y-81743947D01*
X115978944Y-81712554D01*
X115861789Y-81681162D01*
X115861788Y-81681161D01*
X115861785Y-81681161D01*
X115621289Y-81649500D01*
X115621288Y-81649500D01*
X115378712Y-81649500D01*
X115378711Y-81649500D01*
X115138214Y-81681161D01*
X114903895Y-81743947D01*
X114679794Y-81836773D01*
X114679785Y-81836777D01*
X114469706Y-81958067D01*
X114277263Y-82105733D01*
X114277256Y-82105739D01*
X114105739Y-82277256D01*
X114105733Y-82277263D01*
X113958067Y-82469706D01*
X113836777Y-82679785D01*
X113836773Y-82679794D01*
X113743947Y-82903895D01*
X113681161Y-83138214D01*
X113649500Y-83378711D01*
X109000500Y-83378711D01*
X109000500Y-49878711D01*
X113649500Y-49878711D01*
X113649500Y-50121288D01*
X113681161Y-50361785D01*
X113743947Y-50596104D01*
X113828071Y-50799196D01*
X113836776Y-50820212D01*
X113958064Y-51030289D01*
X113958066Y-51030292D01*
X113958067Y-51030293D01*
X114105733Y-51222736D01*
X114105739Y-51222743D01*
X114277256Y-51394260D01*
X114277262Y-51394265D01*
X114469711Y-51541936D01*
X114679788Y-51663224D01*
X114903900Y-51756054D01*
X115138211Y-51818838D01*
X115318586Y-51842584D01*
X115378711Y-51850500D01*
X115378712Y-51850500D01*
X115621289Y-51850500D01*
X115669388Y-51844167D01*
X115861789Y-51818838D01*
X116096100Y-51756054D01*
X116320212Y-51663224D01*
X116530289Y-51541936D01*
X116722738Y-51394265D01*
X116894265Y-51222738D01*
X117041936Y-51030289D01*
X117163224Y-50820212D01*
X117256054Y-50596100D01*
X117318838Y-50361789D01*
X117350500Y-50121288D01*
X117350500Y-49878712D01*
X117318838Y-49638211D01*
X117256054Y-49403900D01*
X117163224Y-49179788D01*
X117041936Y-48969711D01*
X116925184Y-48817556D01*
X116894266Y-48777263D01*
X116894260Y-48777256D01*
X116722743Y-48605739D01*
X116722736Y-48605733D01*
X116530293Y-48458067D01*
X116530292Y-48458066D01*
X116530289Y-48458064D01*
X116320212Y-48336776D01*
X116320205Y-48336773D01*
X116096104Y-48243947D01*
X115861785Y-48181161D01*
X115621289Y-48149500D01*
X115621288Y-48149500D01*
X115378712Y-48149500D01*
X115378711Y-48149500D01*
X115138214Y-48181161D01*
X114903895Y-48243947D01*
X114679794Y-48336773D01*
X114679785Y-48336777D01*
X114469706Y-48458067D01*
X114277263Y-48605733D01*
X114277256Y-48605739D01*
X114105739Y-48777256D01*
X114105733Y-48777263D01*
X113958067Y-48969706D01*
X113958064Y-48969710D01*
X113958064Y-48969711D01*
X113953039Y-48978414D01*
X113836777Y-49179785D01*
X113836773Y-49179794D01*
X113743947Y-49403895D01*
X113681161Y-49638214D01*
X113649500Y-49878711D01*
X109000500Y-49878711D01*
X109000500Y-42624500D01*
X109020185Y-42557461D01*
X109072989Y-42511706D01*
X109124500Y-42500500D01*
X124466226Y-42500500D01*
X124533265Y-42520185D01*
G37*
G04 #@! TD.AperFunction*
M02*
