M48
METRIC,TZ
T1C0.200
T2C0.300
T3C0.400
T4C0.600
T5C0.750
T6C0.900
T7C1.000
%
G90
G05
T1
X132725Y-70025
X132725Y-71025
X132725Y-72025
X134025Y-70025
X134025Y-71025
X134025Y-72025
X142045Y-50228
X142045Y-51753
X142808Y-49465
X142808Y-50990
X142808Y-52515
X143570Y-50228
X143570Y-51753
X144332Y-49465
X144332Y-50990
X144332Y-52515
X145095Y-50228
X145095Y-51753
T2
X117500Y-69050
X122000Y-64500
X122000Y-66500
X130500Y-58000
X130575Y-46575
X140500Y-81500
X141850Y-78000
X156400Y-83525
X157000Y-47000
X157000Y-50000
X157000Y-60000
X157900Y-75525
X164000Y-80500
X167950Y-69550
T3
X116500Y-57000
X124000Y-45000
X125000Y-43500
X132500Y-75000
X138000Y-70000
X145500Y-79000
X147000Y-81500
X158500Y-69000
X164000Y-64500
X164960Y-56000
X165000Y-69000
X166000Y-84000
X167000Y-74500
X170500Y-46500
X171500Y-81500
T5
X149400Y-80575
X151400Y-80575
T6
X171000Y-60230
X171000Y-62770
X172000Y-67500
X172000Y-70040
X172000Y-72580
T7
X162500Y-45920
X162500Y-48460
X162500Y-51000
X162500Y-53540
T4
G00X132080Y-83845
M15
G01X132080Y-84945
M16
G05
G00X132080Y-88275
M15
G01X132080Y-88875
M16
G05
G00X140720Y-83845
M15
G01X140720Y-84945
M16
G05
G00X140720Y-88275
M15
G01X140720Y-88875
M16
G05
M30
