G04 #@! TF.GenerationSoftware,KiCad,Pcbnew,10.0.6*
G04 #@! TF.CreationDate,2026-10-06T22:37:22+03:00*
G04 #@! TF.ProjectId,esp32_node .kicad_sch ,65737033-325f-46e6-9f64-65202e6b6963,rev?*
G04 #@! TF.SameCoordinates,Original*
G04 #@! TF.FileFunction,Paste,Top*
G04 #@! TF.FilePolarity,Positive*
%FSLAX46Y46*%
G04 Gerber Fmt 4.6, Leading zero omitted, Abs format (unit mm)*
G04 Created by KiCad (PCBNEW 10.0.6) date 2026-10-06 22:37:22*
%MOMM*%
%LPD*%
G01*
G04 APERTURE LIST*
G04 Aperture macros list*
%AMRoundRect*
0 Rectangle with rounded corners*
0 $1 Rounding radius*
0 $2 $3 $4 $5 $6 $7 $8 $9 X,Y pos of 4 corners*
0 Add a 4 corners polygon primitive as box body*
4,1,4,$2,$3,$4,$5,$6,$7,$8,$9,$2,$3,0*
0 Add four circle primitives for the rounded corners*
1,1,$1+$1,$2,$3*
1,1,$1+$1,$4,$5*
1,1,$1+$1,$6,$7*
1,1,$1+$1,$8,$9*
0 Add four rect primitives between the rounded corners*
20,1,$1+$1,$2,$3,$4,$5,0*
20,1,$1+$1,$4,$5,$6,$7,0*
20,1,$1+$1,$6,$7,$8,$9,0*
20,1,$1+$1,$8,$9,$2,$3,0*%
G04 Aperture macros list end*
%ADD10RoundRect,0.250000X0.250000X0.475000X-0.250000X0.475000X-0.250000X-0.475000X0.250000X-0.475000X0*%
%ADD11RoundRect,0.250000X0.450000X-0.262500X0.450000X0.262500X-0.450000X0.262500X-0.450000X-0.262500X0*%
%ADD12RoundRect,0.250000X-0.450000X0.262500X-0.450000X-0.262500X0.450000X-0.262500X0.450000X0.262500X0*%
%ADD13R,0.350000X0.500000*%
%ADD14RoundRect,0.250000X-0.262500X-0.450000X0.262500X-0.450000X0.262500X0.450000X-0.262500X0.450000X0*%
%ADD15RoundRect,0.240000X-0.240000X-0.385000X0.240000X-0.385000X0.240000X0.385000X-0.240000X0.385000X0*%
%ADD16RoundRect,0.150000X-0.825000X-0.150000X0.825000X-0.150000X0.825000X0.150000X-0.825000X0.150000X0*%
%ADD17R,1.000000X0.750000*%
%ADD18RoundRect,0.250000X0.262500X0.450000X-0.262500X0.450000X-0.262500X-0.450000X0.262500X-0.450000X0*%
%ADD19RoundRect,0.250000X-0.475000X0.250000X-0.475000X-0.250000X0.475000X-0.250000X0.475000X0.250000X0*%
%ADD20RoundRect,0.150000X-0.150000X0.512500X-0.150000X-0.512500X0.150000X-0.512500X0.150000X0.512500X0*%
%ADD21RoundRect,0.150000X-0.150000X-0.575000X0.150000X-0.575000X0.150000X0.575000X-0.150000X0.575000X0*%
%ADD22RoundRect,0.075000X-0.075000X-0.650000X0.075000X-0.650000X0.075000X0.650000X-0.075000X0.650000X0*%
%ADD23RoundRect,0.250000X-1.000000X-0.650000X1.000000X-0.650000X1.000000X0.650000X-1.000000X0.650000X0*%
%ADD24RoundRect,0.250000X0.475000X-0.250000X0.475000X0.250000X-0.475000X0.250000X-0.475000X-0.250000X0*%
%ADD25RoundRect,0.100000X-0.637500X-0.100000X0.637500X-0.100000X0.637500X0.100000X-0.637500X0.100000X0*%
%ADD26R,1.500000X0.900000*%
%ADD27R,0.900000X1.500000*%
%ADD28R,1.050000X1.050000*%
%ADD29RoundRect,0.150000X-0.587500X-0.150000X0.587500X-0.150000X0.587500X0.150000X-0.587500X0.150000X0*%
%ADD30RoundRect,0.250000X-0.625000X0.375000X-0.625000X-0.375000X0.625000X-0.375000X0.625000X0.375000X0*%
%ADD31RoundRect,0.150000X0.512500X0.150000X-0.512500X0.150000X-0.512500X-0.150000X0.512500X-0.150000X0*%
%ADD32RoundRect,0.250000X-1.425000X0.362500X-1.425000X-0.362500X1.425000X-0.362500X1.425000X0.362500X0*%
G04 APERTURE END LIST*
D10*
X142800001Y-79525000D03*
X140900001Y-79525000D03*
D11*
X138400001Y-79937500D03*
X138400001Y-78112500D03*
D12*
X126206250Y-44712500D03*
X126206250Y-46537500D03*
D11*
X160500000Y-60412500D03*
X160500000Y-58587500D03*
D13*
X115000000Y-67000000D03*
X115650000Y-67000000D03*
X116300000Y-67000000D03*
X116950000Y-67000000D03*
X116950000Y-69050000D03*
X116300000Y-69050000D03*
X115650000Y-69050000D03*
X115000000Y-69050000D03*
D14*
X158400001Y-73525000D03*
X160225001Y-73525000D03*
D15*
X132805001Y-70275000D03*
X132805001Y-71775000D03*
X133945001Y-70275000D03*
X133945001Y-71775000D03*
D16*
X130900001Y-69120000D03*
X130900001Y-70390000D03*
X130900001Y-71660000D03*
X130900001Y-72930000D03*
X135850001Y-72930000D03*
X135850001Y-71660000D03*
X135850001Y-70390000D03*
X135850001Y-69120000D03*
D11*
X163000000Y-60912500D03*
X163000000Y-59087500D03*
D17*
X123000000Y-57750000D03*
X129000000Y-57750000D03*
X123000000Y-61500000D03*
X129000000Y-61500000D03*
D18*
X128400001Y-69525000D03*
X126575001Y-69525000D03*
D19*
X129206250Y-44675000D03*
X129206250Y-46575000D03*
X148900001Y-72625000D03*
X148900001Y-74525000D03*
D20*
X142800001Y-74887500D03*
X141850001Y-74887500D03*
X140900001Y-74887500D03*
X140900001Y-77162500D03*
X142800001Y-77162500D03*
D12*
X163000000Y-69675000D03*
X163000000Y-71500000D03*
D21*
X133150001Y-83480000D03*
X133950001Y-83480000D03*
D22*
X135150001Y-83480000D03*
X136150001Y-83480000D03*
X136650001Y-83480000D03*
X137650001Y-83480000D03*
D21*
X138850001Y-83480000D03*
X139650001Y-83480000D03*
X139650001Y-83480000D03*
X138850001Y-83480000D03*
D22*
X138150001Y-83480000D03*
X137150001Y-83480000D03*
X135650001Y-83480000D03*
X134650001Y-83480000D03*
D21*
X133950001Y-83480000D03*
X133150001Y-83480000D03*
D23*
X122305001Y-78140000D03*
X126305001Y-78140000D03*
D11*
X120500000Y-59162500D03*
X120500000Y-57337500D03*
D24*
X113475000Y-70900000D03*
X113475000Y-69000000D03*
D25*
X156037501Y-79550000D03*
X156037501Y-80200000D03*
X156037501Y-80850000D03*
X156037501Y-81500000D03*
X161762501Y-81500000D03*
X161762501Y-80850000D03*
X161762501Y-80200000D03*
X161762501Y-79550000D03*
D12*
X146400001Y-72700000D03*
X146400001Y-74525000D03*
D17*
X123206250Y-50250000D03*
X129206250Y-50250000D03*
X123206250Y-54000000D03*
X129206250Y-54000000D03*
D19*
X132206250Y-44675000D03*
X132206250Y-46575000D03*
D26*
X135500000Y-43650000D03*
X135500000Y-44920000D03*
X135500000Y-46190000D03*
X135500000Y-47460000D03*
X135500000Y-48730000D03*
X135500000Y-50000000D03*
X135500000Y-51270000D03*
X135500000Y-52540000D03*
X135500000Y-53810000D03*
X135500000Y-55080000D03*
X135500000Y-56350000D03*
X135500000Y-57620000D03*
X135500000Y-58890000D03*
X135500000Y-60160000D03*
D27*
X138540000Y-61410000D03*
X139810000Y-61410000D03*
X141080000Y-61410000D03*
X142350000Y-61410000D03*
X143620000Y-61410000D03*
X144890000Y-61410000D03*
X146160000Y-61410000D03*
X147430000Y-61410000D03*
X148700000Y-61410000D03*
X149970000Y-61410000D03*
D26*
X153000000Y-60160000D03*
X153000000Y-58890000D03*
X153000000Y-57620000D03*
X153000000Y-56350000D03*
X153000000Y-55080000D03*
X153000000Y-53810000D03*
X153000000Y-52540000D03*
X153000000Y-51270000D03*
X153000000Y-50000000D03*
X153000000Y-48730000D03*
X153000000Y-47460000D03*
X153000000Y-46190000D03*
X153000000Y-44920000D03*
X153000000Y-43650000D03*
D28*
X142045000Y-49465000D03*
X142045000Y-50990000D03*
X142045000Y-52515000D03*
X143570000Y-49465000D03*
X143570000Y-50990000D03*
X143570000Y-52515000D03*
X145095000Y-49465000D03*
X145095000Y-50990000D03*
X145095000Y-52515000D03*
D12*
X118925000Y-68087500D03*
X118925000Y-69912500D03*
D24*
X125900001Y-74925000D03*
X125900001Y-73025000D03*
D29*
X165562500Y-61100000D03*
X165562500Y-63000000D03*
X167437500Y-62050000D03*
D11*
X134900001Y-79937500D03*
X134900001Y-78112500D03*
D24*
X128500000Y-74925000D03*
X128500000Y-73025000D03*
X142900001Y-71975000D03*
X142900001Y-70075000D03*
D19*
X123500000Y-73050000D03*
X123500000Y-74950000D03*
D30*
X129900001Y-78140000D03*
X129900001Y-80940000D03*
D18*
X117300000Y-63500000D03*
X115475000Y-63500000D03*
D19*
X166500000Y-69550000D03*
X166500000Y-71450000D03*
D24*
X132256250Y-50125000D03*
X132256250Y-48225000D03*
D12*
X166500000Y-65587500D03*
X166500000Y-67412500D03*
D24*
X116475000Y-72450000D03*
X116475000Y-70550000D03*
D31*
X155450001Y-74395000D03*
X155450001Y-73445000D03*
X155450001Y-72495000D03*
X153175001Y-72495000D03*
X153175001Y-73445000D03*
X153175001Y-74395000D03*
D32*
X167500000Y-48037500D03*
X167500000Y-53962500D03*
M02*
